<svg id="Capa_1" data-name="Capa 1" xmlns="http://www.w3.org/2000/svg" xmlns:xlink="http://www.w3.org/1999/xlink" viewBox="0 0 223.33 239.5"><defs><style>.cls-1{fill:url(#Degradado_sin_nombre_174);}.cls-2{fill:#e4d1de;}.cls-3{fill:#fff;}.cls-4{fill:#fac399;}.cls-5{fill:#b1afd8;}.cls-6{fill:#2e4192;}.cls-7{fill:#f6a967;}.cls-8{fill:#ec6667;}.cls-9{fill:#244093;}.cls-10{fill:#f3a260;}.cls-11{fill:#5c64ac;}.cls-12{fill:#4654a1;}.cls-13,.cls-15{fill:none;}.cls-14{fill:#f6a866;}.cls-15{stroke:#244093;stroke-miterlimit:10;}.cls-16{fill:#ed6b6e;}</style><linearGradient id="Degradado_sin_nombre_174" x1="199.68" y1="369.82" x2="423.01" y2="369.82" gradientUnits="userSpaceOnUse"><stop offset="0.24" stop-color="#fcddce"/><stop offset="0.99" stop-color="#2581c4" stop-opacity="0"/></linearGradient></defs><title>arrendo</title><path class="cls-1" d="M223,462c-31.11-28.22-28-81.85-8.5-114,2.77-4.56,12.87-9.5,50.33-41.62C332.93,247.92,362,253.54,370,255a67.22,67.22,0,0,1,44.5,30.5c16.64,27.48,5.13,59.95-2.5,81.5-4.93,13.9-65.18,59.11-107,109.5C292.11,492,251.43,487.77,223,462Z" transform="translate(-199.68 -246)"/><path class="cls-2" d="M220.14,415.48v7.14h15.5l-1-6.94,15-.2,1.11,3.34a7.37,7.37,0,0,0,5.14,4.81l5.75,1.49,0.73,2.78a10.44,10.44,0,0,0,6.11,7l5.48,2.27,0.27,1c1,3.84,2.84,11.06,6.77,11.66l7.13,1.23,2.43,7a9.14,9.14,0,0,0,7.91,6.12l5.33-.66,6.78,2.76c4.31,1.76,10.2,2.53,11.71-1.87l4.2-10.5,7.34-.21a9.44,9.44,0,0,0,6.17-7.16l1.13-6,3.24-.55a10.13,10.13,0,0,0,8.42-10.55l-0.16-2.9,3.76,1.3a9.32,9.32,0,0,0,8.11-7.93l0.63-4.37h5.5v6.94h22v-9l-9.5-30.35h-160Z" transform="translate(-199.68 -246)"/><path class="cls-2" d="M217.64,415.48v7.14a2.54,2.54,0,0,0,2.5,2.5h15.5a2.54,2.54,0,0,0,2.41-3.16l-1-6.94-2.41,3.16,15-.2-2.41-1.84c1.07,3.23,1.94,6.39,4.92,8.44,2.52,1.74,5.92,2.18,8.83,2.94l-1.75-1.75c1,3.78,2.1,7.21,5.35,9.71,2.49,1.92,5.83,2.9,8.72,4.1l-1.75-1.75c1.14,4.37,2.24,10.12,6,13.1,2.62,2.06,6.76,2,9.91,2.58l-1.75-1.75c1.7,4.91,2.83,10.71,7.71,13.5,2.56,1.46,4.93,1.51,7.71,1.17s3.13,0,6.3,1.33c4.88,2,12.28,4.7,16.16-.51,2.58-3.46,3.72-8.62,5.31-12.6l-2.41,1.84c4.14-.12,8.19.48,11.62-2.26,4.09-3.27,4.53-8.11,5.43-12.9l-1.75,1.75c9.36-1.59,13.86-6.84,13.34-16.41L352,429.08c4.2,1.46,7.43,1.78,11.1-1.48,3.39-3,3.87-7,4.47-11.27l-2.41,1.84h5.5l-2.5-2.5v6.94a2.54,2.54,0,0,0,2.5,2.5h22a2.54,2.54,0,0,0,2.5-2.5c0-3.14.45-6.61-.1-9.7-0.49-2.76-1.75-5.58-2.58-8.26l-6.9-22.05a2.56,2.56,0,0,0-2.41-1.84h-160a2.56,2.56,0,0,0-2.5,2.5l-3,32.21c-0.3,3.2,4.7,3.18,5,0l3-32.21-2.5,2.5h160l-2.41-1.84,6.63,21.19a90.81,90.81,0,0,1,2.79,8.92c0.15,0.74-.12-1.06,0,0.08,0.09,1,0,2,0,3v5.46l2.5-2.5h-22l2.5,2.5v-6.94a2.54,2.54,0,0,0-2.5-2.5h-5.5a2.52,2.52,0,0,0-2.41,1.84c-0.31,2.15-.35,4.71-1.37,6.65-2.16,4.12-4.53,3.83-8.06,2.6a2.52,2.52,0,0,0-3.16,2.41c0.17,3,.47,6-1.73,8.52s-5.06,2.58-7.93,3.07a2.42,2.42,0,0,0-1.75,1.75c-0.66,3.48-.8,8.26-4,10.42-2.26,1.54-5.5,1-8.27,1.07a2.61,2.61,0,0,0-2.41,1.84c-1.21,3-2.11,7.47-4,10.1-3,4-9.36.3-13.09-1.22-3.43-1.4-5.68,0-9.15-.56-4.9-.79-5.94-7.36-7.27-11.21a2.5,2.5,0,0,0-1.75-1.75c-2.2-.38-5.09-0.35-7.13-1.23-4.09-1.74-3.57-7.3-5.23-10.7-1.13-2.33-3.58-2.68-5.87-3.69-4-1.78-5.46-4.59-6.51-8.64a2.5,2.5,0,0,0-1.75-1.75,53.6,53.6,0,0,1-5.65-1.47c-3.12-1.2-3.66-3.59-4.6-6.42a2.57,2.57,0,0,0-2.41-1.84l-15,.2a2.54,2.54,0,0,0-2.41,3.16l1,6.94,2.41-3.16h-15.5l2.5,2.5v-7.14C222.64,412.26,217.64,412.25,217.64,415.48Z" transform="translate(-199.68 -246)"/><polygon class="cls-3" points="52.32 50.5 53.96 138.5 159.96 138.5 160.32 26.53 76.96 26.53 52.32 50.5"/><polygon class="cls-4" points="52.49 163.5 40.32 163.5 40.32 99 95.32 101 159.11 162.32 161.95 170 158.78 175.94 148.98 177.8 146.47 188.32 140.74 190.79 134.92 190.79 133.99 200.76 127.74 203.79 121.98 202.42 120.72 213.76 113.74 216.79 52.49 163.5"/><g id="_Grupo_" data-name="&lt;Grupo&gt;"><path class="cls-5" d="M218,341v74.5h22V347.75a6.75,6.75,0,0,0-6.75-6.75H218Z" transform="translate(-199.68 -246)"/><path class="cls-6" d="M215.5,341v74.5A2.54,2.54,0,0,0,218,418h22a2.54,2.54,0,0,0,2.5-2.5V355.18c0-4.18.79-9.44-1.89-13-4.56-6-16-3.71-22.61-3.71-3.22,0-3.22,5,0,5h11.87c3.86,0,7.2.43,7.63,5.16,0.62,6.8,0,13.94,0,20.76V415.5L240,413H218l2.5,2.5V341C220.5,337.78,215.5,337.78,215.5,341Z" transform="translate(-199.68 -246)"/></g><polygon class="cls-7" points="95.96 142.77 118.3 123.56 159.98 164.5 169.32 161.73 169.32 100 117.35 100 86.82 127.85 85.64 139.12 95.96 142.77"/><path class="cls-8" d="M371,340.25V414.5h22V340H371.25A0.25,0.25,0,0,0,371,340.25Z" transform="translate(-199.68 -246)"/><path class="cls-9" d="M368.5,340.25V414.5A2.54,2.54,0,0,0,371,417h22a2.54,2.54,0,0,0,2.5-2.5V340a2.54,2.54,0,0,0-2.5-2.5H380.16c-2.74,0-8.73-1.21-10.93,1s1.26,5.81,3.54,3.54c-0.89.89-2,.11-0.64,0.48a10,10,0,0,0,2.33,0H393l-2.5-2.5v74.5L393,412H371l2.5,2.5V340.25C373.5,337,368.5,337,368.5,340.25Z" transform="translate(-199.68 -246)"/><polygon class="cls-3" points="50.14 61.36 50.14 36.3 29.32 36.3 106.82 2.5 137.41 15.84 137.25 2.5 152.18 2.5 152.85 22.58 184.32 36.3 160.21 36.3 160.21 59.5 50.14 61.36"/><polygon class="cls-10" points="55.7 50.95 74.64 30.88 74.82 51.5 55.7 50.95"/><path class="cls-10" d="M257.14,298.72l18.94-20.08-4.27-1.77L272,297.5l2.5-2.5-19.12-.55c-3.22-.09-3.22,4.91,0,5L274.5,300a2.53,2.53,0,0,0,2.5-2.5l-0.18-20.62a2.53,2.53,0,0,0-4.27-1.77l-18.94,20.08C251.4,297.53,254.93,301.07,257.14,298.72Z" transform="translate(-199.68 -246)"/><path class="cls-9" d="M251.77,301.27l26.64-27c2.26-2.29-1.27-5.83-3.54-3.54l-26.64,27c-2.26,2.29,1.27,5.83,3.54,3.54h0Z" transform="translate(-199.68 -246)"/><path class="cls-9" d="M357.5,272.53v73L360,343H325.24c-3,0-7.88-.93-10.57.79-4,2.58-7.61,7.16-11.06,10.41L288.94,368c-4.47,4.21-7.68,9.65-4.14,15.77,4,6.86,12.79,7.41,18.47,2.54,4.47-3.83,8.68-8,13-12,1.35-1.25,4.72-3.28,5.44-5-0.48,1.15-2.66.72,0.42,0.66l4.43-.08,19.92-.38c3.21-.06,3.22-5.06,0-5l-14.24.27-9.17.17c-1.36,0-3.08-.2-4.35.4s-2.35,2.09-3.29,3l-6.89,6.35c-3.16,2.91-7.73,9-12.24,9.89-6.56,1.26-10.28-6.23-6-11,0.92-1,2-1.92,3-2.86l13.78-13,6.74-6.35c0.76-.71,3.81-2.77,4.08-3.84s-1.28.45-1.28,0.45a5.71,5.71,0,0,0,1.37,0,64.88,64.88,0,0,0,6.78,0H360a2.54,2.54,0,0,0,2.5-2.5v-73c0-3.22-5-3.22-5,0h0Z" transform="translate(-199.68 -246)"/><path class="cls-9" d="M371,341.5l-11,.5c-3.2.15-3.22,5.15,0,5l11-.5c3.2-.15,3.22-5.15,0-5h0Z" transform="translate(-199.68 -246)"/><path class="cls-9" d="M360,270q-41.75,0-83.5,0a2.54,2.54,0,0,0-2.5,2.5v27l2.5-2.5H250a2.54,2.54,0,0,0-2.5,2.5V316c0,3.22,5,3.22,5,0V299.5L250,302h26.5a2.54,2.54,0,0,0,2.5-2.5v-27l-2.5,2.5q41.75,0,83.5,0c3.22,0,3.22-5,0-5h0Z" transform="translate(-199.68 -246)"/><path class="cls-9" d="M278.6,348.5h7.22c2.17,0,6.88.91,8.88,0-0.76.35-1.94-1.47-.22,0.25a40.12,40.12,0,0,0,3.69,2.89l6.5,5.09c2.5,2,6.07-1.55,3.54-3.54l-6.88-5.39c-1.84-1.44-4-3.8-6.33-4.31s-5.35,0-7.71,0H278.6c-3.22,0-3.22,5,0,5h0Z" transform="translate(-199.68 -246)"/><path class="cls-11" d="M290.5,321l-13.86.14c-3.22,0-3.22,5,0,5L290.5,326c3.22,0,3.22-5,0-5h0Z" transform="translate(-199.68 -246)"/><path class="cls-11" d="M281,334.13h9.5c3.22,0,3.22-5,0-5H281c-3.22,0-3.22,5,0,5h0Z" transform="translate(-199.68 -246)"/><circle class="cls-12" cx="56.57" cy="92" r="24.38"/><path class="cls-6" d="M234.38,338c0.33-11.92,9.7-21.87,21.88-21.87a21.88,21.88,0,0,1,0,43.75c-12.17,0-21.54-10-21.87-21.87-0.09-3.21-5.09-3.22-5,0,0.31,11.21,7,21.32,17.64,25.23a27.09,27.09,0,0,0,30-8.15c15.61-18.9-1.42-47.79-25.47-43.52-12.9,2.29-21.77,13.59-22.12,26.44C229.29,341.22,234.29,341.22,234.38,338Z" transform="translate(-199.68 -246)"/><path class="cls-13" d="M376.5,485.5" transform="translate(-199.68 -246)"/><path class="cls-7" d="M276.33,409.41l-7.8,7.59a9.73,9.73,0,0,1-8,2.68h0a9.54,9.54,0,0,1-8.28-8.24l0-.14a9.82,9.82,0,0,1,2.64-8l6.39-6.7a10.35,10.35,0,0,1,7.78-3.2l2.56,0.07a7.91,7.91,0,0,1,7.62,6.83l0.07,0.51A10.12,10.12,0,0,1,276.33,409.41Z" transform="translate(-199.68 -246)"/><path class="cls-9" d="M274.56,407.64c-2.47,2.41-4.84,5.11-7.5,7.3-7.27,6-16.23-2.39-10.41-9.91a54.64,54.64,0,0,1,6.39-6.7,10.22,10.22,0,0,1,8.57-2.4c6.18,0.88,6.42,7.74,3,11.7-2.11,2.41,1.41,6,3.54,3.54,6.52-7.44,4-19.55-6.89-20.25-8.27-.53-13.07,4.8-18.1,10.57-6.4,7.34-2.94,19.69,7.43,20.69,7.62,0.73,12.67-6.26,17.55-11C280.41,408.93,276.87,405.39,274.56,407.64Z" transform="translate(-199.68 -246)"/><path class="cls-7" d="M290.33,422.41l-7.8,7.59a9.73,9.73,0,0,1-8,2.68h0a9.54,9.54,0,0,1-8.28-8.24l0-.14a9.82,9.82,0,0,1,2.64-8l6.39-6.7a10.35,10.35,0,0,1,7.78-3.2l2.56,0.07a7.91,7.91,0,0,1,7.62,6.83l0.07,0.51A10.12,10.12,0,0,1,290.33,422.41Z" transform="translate(-199.68 -246)"/><path class="cls-9" d="M288.56,420.64c-2.47,2.41-4.84,5.11-7.5,7.3-7.27,6-16.23-2.39-10.41-9.91a54.64,54.64,0,0,1,6.39-6.7,10.22,10.22,0,0,1,8.57-2.4c6.18,0.88,6.42,7.74,3,11.7-2.11,2.41,1.41,6,3.54,3.54,6.52-7.44,4-19.55-6.89-20.25-8.27-.53-13.07,4.8-18.1,10.57-6.4,7.34-2.94,19.69,7.43,20.69,7.62,0.73,12.67-6.26,17.55-11C294.41,421.93,290.87,418.39,288.56,420.64Z" transform="translate(-199.68 -246)"/><path class="cls-14" d="M303.33,435.41l-7.8,7.59a9.73,9.73,0,0,1-8,2.68h0a9.54,9.54,0,0,1-8.28-8.24l0-.14a9.82,9.82,0,0,1,2.64-8l6.39-6.7a10.35,10.35,0,0,1,7.78-3.2l2.56,0.07a7.91,7.91,0,0,1,7.62,6.83l0.07,0.51A10.12,10.12,0,0,1,303.33,435.41Z" transform="translate(-199.68 -246)"/><path class="cls-9" d="M301.56,433.64c-2.47,2.41-4.84,5.11-7.5,7.3-7.27,6-16.23-2.39-10.41-9.91a54.64,54.64,0,0,1,6.39-6.7,10.22,10.22,0,0,1,8.57-2.4c6.18,0.88,6.42,7.74,3,11.7-2.11,2.41,1.41,6,3.54,3.54,6.52-7.44,4-19.55-6.89-20.25-8.27-.53-13.07,4.8-18.1,10.57-6.4,7.34-2.94,19.69,7.43,20.69,7.62,0.73,12.67-6.26,17.55-11C307.41,434.93,303.87,431.39,301.56,433.64Z" transform="translate(-199.68 -246)"/><path class="cls-7" d="M317.33,448.41l-7.8,7.59a9.73,9.73,0,0,1-8,2.68h0a9.54,9.54,0,0,1-8.28-8.24l0-.14a9.82,9.82,0,0,1,2.64-8l6.39-6.7a10.35,10.35,0,0,1,7.78-3.2l2.56,0.07a7.91,7.91,0,0,1,7.62,6.83l0.07,0.51A10.12,10.12,0,0,1,317.33,448.41Z" transform="translate(-199.68 -246)"/><path class="cls-9" d="M315.56,446.64c-2.47,2.41-4.84,5.11-7.5,7.3-7.27,6-16.23-2.39-10.41-9.91a54.64,54.64,0,0,1,6.39-6.7,10.22,10.22,0,0,1,8.57-2.4c6.18,0.88,6.42,7.74,3,11.7-2.11,2.41,1.41,6,3.54,3.54,6.52-7.44,4-19.55-6.89-20.25-8.27-.53-13.07,4.8-18.1,10.57-6.4,7.34-2.94,19.69,7.43,20.69,7.62,0.73,12.67-6.26,17.55-11C321.41,447.93,317.87,444.39,315.56,446.64Z" transform="translate(-199.68 -246)"/><path class="cls-9" d="M327.23,379.6l27.38,27.11c1.6,1.58,3.25,3,4.07,5.14,3.06,8.17-7.14,10.09-12,5.7-4.55-4.08-8.7-8.72-13-13l-13.86-13.9c-2.28-2.28-5.81,1.25-3.54,3.54l14.56,14.6c4.69,4.7,9.56,11.42,15.44,14.76,10.84,6.18,23.1-5.76,15.65-16.36-3.63-5.17-9.29-9.46-13.75-13.87l-17.37-17.19c-2.29-2.27-5.83,1.27-3.54,3.54h0Z" transform="translate(-199.68 -246)"/><path class="cls-9" d="M314.23,392.6l27.38,27.11c1.6,1.58,3.25,3,4.07,5.14,3.06,8.17-7.14,10.09-12,5.7-4.55-4.08-8.7-8.72-13-13l-13.86-13.9c-2.28-2.28-5.81,1.25-3.54,3.54l14.56,14.6c4.69,4.7,9.56,11.42,15.44,14.76,10.84,6.18,23.1-5.76,15.65-16.36-3.63-5.17-9.29-9.46-13.75-13.87l-17.37-17.19c-2.29-2.27-5.83,1.27-3.54,3.54h0Z" transform="translate(-199.68 -246)"/><path class="cls-9" d="M331,435.09c2.58,2.85,3.08,7.39-.21,9.94-3.11,2.4-7.36,1.09-10-1.34-2.37-2.17-5.92,1.36-3.54,3.54,4.66,4.26,12.12,5.85,17.19,1.28s4.51-12.1.11-17c-2.16-2.39-5.69,1.15-3.54,3.54h0Z" transform="translate(-199.68 -246)"/><path class="cls-9" d="M317,448.09c2.58,2.85,3.08,7.39-.21,9.94-3.11,2.4-7.36,1.09-10-1.34-2.37-2.17-5.92,1.36-3.54,3.54,4.66,4.26,12.12,5.85,17.19,1.28s4.51-12.1.11-17c-2.16-2.39-5.69,1.15-3.54,3.54h0Z" transform="translate(-199.68 -246)"/><path class="cls-9" d="M371,406h-9.34c-3.22,0-3.22,5,0,5H371c3.22,0,3.22-5,0-5h0Z" transform="translate(-199.68 -246)"/><path class="cls-3" d="M262,326.34h-9c-1.19,0-2.45-.18-3.48.54-1.78,1.24-2.66,4-2.65,6.1s0.83,4.53,2.4,5.79c1.08,0.86,2.2.73,3.49,0.73H262l-2.16-1.24c1.26,1.83.93,3.63,0,5.48L262,342.5H249c-3.22,0-3.22,5,0,5h13a2.48,2.48,0,0,0,2.16-1.24c1.67-3.32,2.9-11.35-2.56-11.76-3.49-.26-7.09,0-10.59,0l1.77,0.73a3.39,3.39,0,0,1,0-4.62l-1.77.73h11c3.22,0,3.22-5,0-5h0Z" transform="translate(-199.68 -246)"/><path class="cls-3" d="M253.61,324.5v25c0,3.22,5,3.22,5,0v-25c0-3.22-5-3.22-5,0h0Z" transform="translate(-199.68 -246)"/><path class="cls-9" d="M252,408.5l-11,.5c-3.2.15-3.22,5.15,0,5l11-.5c3.2-.15,3.22-5.15,0-5h0Z" transform="translate(-199.68 -246)"/><line class="cls-7" x1="72.32" y1="67.63" x2="76.96" y2="67.63"/><path class="cls-7" d="M272,316.13h4.64c3.22,0,3.22-5,0-5H272c-3.22,0-3.22,5,0,5h0Z" transform="translate(-199.68 -246)"/><path class="cls-7" d="M285.77,316.13h4.73c3.22,0,3.22-5,0-5h-4.73c-3.22,0-3.22,5,0,5h0Z" transform="translate(-199.68 -246)"/><path class="cls-9" d="M362.39,331.34v-49l-2.5,2.5H384c2.31,0,3.63-3.62,1.26-4.66l-31.47-13.73,1.24,2.16-0.67-20.08a2.54,2.54,0,0,0-2.5-2.5H336.93a2.53,2.53,0,0,0-2.5,2.5l0.16,13.34,3.76-2.16-23.82-10.39c-2.15-.94-5.56-3.3-8-3.29-1.45,0-3.37,1.26-4.64,1.82L246,272.2l-18.22,7.95c-2.94,1.28-.4,5.59,2.52,4.32l77.5-33.8h-2.52L335.82,264c1.66,0.72,3.79-.09,3.76-2.16l-0.16-13.34-2.5,2.5h14.93l-2.5-2.5L350,268.58a2.47,2.47,0,0,0,1.24,2.16l31.47,13.73L384,279.8H359.89a2.54,2.54,0,0,0-2.5,2.5v49c0,3.22,5,3.22,5,0h0Z" transform="translate(-199.68 -246)"/><path class="cls-9" d="M229,284.8h20.81l-2.5-2.5V314c0,3.22,5,3.22,5,0V282.3a2.54,2.54,0,0,0-2.5-2.5H229c-3.22,0-3.22,5,0,5h0Z" transform="translate(-199.68 -246)"/><path class="cls-9" d="M249.81,317c3.22,0,3.22-5,0-5s-3.22,5,0,5h0Z" transform="translate(-199.68 -246)"/><path class="cls-15" d="M290.5,324.5" transform="translate(-199.68 -246)"/><rect class="cls-16" x="103.14" y="59.76" width="8.53" height="23.74"/><path class="cls-16" d="M311.34,327h-8.53l2.5,2.5V305.76l-2.5,2.5h8.53l-2.5-2.5V329.5c0,3.22,5,3.22,5,0V305.76a2.54,2.54,0,0,0-2.5-2.5h-8.53a2.54,2.54,0,0,0-2.5,2.5V329.5a2.54,2.54,0,0,0,2.5,2.5h8.53C314.56,332,314.57,327,311.34,327Z" transform="translate(-199.68 -246)"/><rect class="cls-7" x="103.14" y="38.02" width="8.53" height="23.74"/><path class="cls-7" d="M311.34,305.26h-8.53l2.5,2.5V284l-2.5,2.5h8.53l-2.5-2.5v23.74c0,3.22,5,3.22,5,0V284a2.54,2.54,0,0,0-2.5-2.5h-8.53a2.54,2.54,0,0,0-2.5,2.5v23.74a2.54,2.54,0,0,0,2.5,2.5h8.53C314.56,310.26,314.57,305.26,311.34,305.26Z" transform="translate(-199.68 -246)"/><rect class="cls-16" x="122.21" y="74.5" width="5" height="9"/><path class="cls-16" d="M326.88,327h-5l2.5,2.5v-9l-2.5,2.5h5l-2.5-2.5v9c0,3.22,5,3.22,5,0v-9a2.54,2.54,0,0,0-2.5-2.5h-5a2.54,2.54,0,0,0-2.5,2.5v9a2.54,2.54,0,0,0,2.5,2.5h5C330.1,332,330.11,327,326.88,327Z" transform="translate(-199.68 -246)"/><rect class="cls-7" x="122.21" y="52.5" width="5.62" height="20.13"/><path class="cls-7" d="M327.5,316.13h-5.62l2.5,2.5V298.5l-2.5,2.5h5.62l-2.5-2.5v20.13c0,3.22,5,3.22,5,0V298.5a2.54,2.54,0,0,0-2.5-2.5h-5.62a2.54,2.54,0,0,0-2.5,2.5v20.13a2.54,2.54,0,0,0,2.5,2.5h5.62C330.72,321.13,330.72,316.13,327.5,316.13Z" transform="translate(-199.68 -246)"/><rect class="cls-16" x="140.15" y="51.5" width="4.67" height="32.13"/><path class="cls-16" d="M344.5,327.13h-4.67l2.5,2.5V297.5l-2.5,2.5h4.67l-2.5-2.5v32.13c0,3.22,5,3.22,5,0V297.5a2.54,2.54,0,0,0-2.5-2.5h-4.67a2.54,2.54,0,0,0-2.5,2.5v32.13a2.54,2.54,0,0,0,2.5,2.5h4.67C347.72,332.13,347.72,327.13,344.5,327.13Z" transform="translate(-199.68 -246)"/><rect class="cls-7" x="139.15" y="40.19" width="5.31" height="10.31"/><path class="cls-7" d="M344.14,294h-5.31l2.5,2.5V286.19l-2.5,2.5h5.31l-2.5-2.5V296.5c0,3.22,5,3.22,5,0V286.19a2.54,2.54,0,0,0-2.5-2.5h-5.31a2.54,2.54,0,0,0-2.5,2.5V296.5a2.54,2.54,0,0,0,2.5,2.5h5.31C347.36,299,347.36,294,344.14,294Z" transform="translate(-199.68 -246)"/><path class="cls-8" d="M228.77,310.33l4.88-5.56h-3.54l5.63,5.76c2.25,2.31,5.79-1.23,3.54-3.54l-5.62-5.76a2.52,2.52,0,0,0-3.54,0l-4.87,5.56c-2.11,2.41,1.41,6,3.54,3.54h0Z" transform="translate(-199.68 -246)"/><path class="cls-7" d="M374.77,303.33l4.88-5.56h-3.54l5.63,5.76c2.25,2.31,5.79-1.23,3.54-3.54l-5.62-5.76a2.52,2.52,0,0,0-3.54,0l-4.87,5.56c-2.11,2.41,1.41,6,3.54,3.54h0Z" transform="translate(-199.68 -246)"/><path class="cls-8" d="M263.77,454.33l4.88-5.56h-3.54l5.63,5.76c2.25,2.31,5.79-1.23,3.54-3.54l-5.62-5.76a2.52,2.52,0,0,0-3.54,0l-4.87,5.56c-2.11,2.41,1.41,6,3.54,3.54h0Z" transform="translate(-199.68 -246)"/><line class="cls-11" x1="184.2" y1="70.88" x2="184.2" y2="78.88"/><path class="cls-11" d="M381.38,316.88v8c0,3.22,5,3.22,5,0v-8c0-3.22-5-3.22-5,0h0Z" transform="translate(-199.68 -246)"/><line class="cls-11" x1="187.95" y1="74.88" x2="180.7" y2="74.88"/><path class="cls-11" d="M387.63,318.38h-7.25c-3.22,0-3.22,5,0,5h7.25c3.22,0,3.22-5,0-5h0Z" transform="translate(-199.68 -246)"/><line class="cls-10" x1="50.2" y1="191.06" x2="50.2" y2="199.06"/><path class="cls-10" d="M247.38,437.06v8c0,3.22,5,3.22,5,0v-8c0-3.22-5-3.22-5,0h0Z" transform="translate(-199.68 -246)"/><line class="cls-10" x1="53.95" y1="195.06" x2="46.7" y2="195.06"/><path class="cls-10" d="M253.63,438.56h-7.25c-3.22,0-3.22,5,0,5h7.25c3.22,0,3.22-5,0-5h0Z" transform="translate(-199.68 -246)"/></svg>