<svg id="Capa_1" enable-background="new 0 0 512 512" height="512" viewBox="0 0 512 512" width="512" xmlns="http://www.w3.org/2000/svg" xmlns:xlink="http://www.w3.org/1999/xlink"><linearGradient id="SVGID_1_" gradientUnits="userSpaceOnUse" x1="125.669" x2="334.669" y1="420.174" y2="150.174"><stop offset=".0112" stop-color="#dcfdee"/><stop offset=".7774" stop-color="#ccddfb"/><stop offset="1" stop-color="#c7d3ff"/></linearGradient><path d="m497.061 251.773c-12.366-99.351-81.521 2.685-100.229-58.88-11.342-37.324 35.571-83.187 19.655-124.062-13.303-34.164-50.356-43.339-85.37-36.48-28.186 5.521-53.264 34.637-82.89 29.777-31.368-5.147-41.166-46.439-72.37-57.311-80.15-27.925-117.738 72.186-137.712 129.893-25.383 73.334-49.5 169.154 28.422 217.901 82.06 51.335 137.233-21.039 189.876 82.161 103.816 203.52 257.922-43.974 240.618-182.999z" fill="url(#SVGID_1_)"/><path d="m433.28 240.924-42.371-56.938c3.721-1.227 6.413-4.727 6.413-8.858v-69.05c0-5.15-4.18-9.33-9.33-9.33h-84.91c-5.15 0-9.33 4.18-9.33 9.33v48.146h-206.911c-11.05 0-20 8.95-20 20v157.28c0 10.368 7.879 18.886 17.979 19.898-6.161 8.139-9.821 18.277-9.821 29.273 0 26.814 21.737 48.552 48.552 48.552h24.235c26.815 0 48.552-21.738 48.552-48.552 0-10.949-3.627-21.049-9.741-29.171h172.113c.211 0 .42-.012.63-.019v60.448c0 19.75 16.06 35.81 35.81 35.81 19.74 0 35.81-16.06 35.81-35.81v-144.012l2.32-3.118c5.271-7.089 5.271-16.789 0-23.879zm-24.32 171.01c0 7.62-6.2 13.81-13.81 13.81s-13.81-6.19-13.81-13.81v-77.332l27.62-37.116z" fill="#2626bc" opacity=".11"/><path d="m451.28 222.924-36.65-49.25-21.87-29.39c-3.78-5.07-9.73-8.06-16.05-8.06h-271.87c-11.05 0-20 8.95-20 20v157.28c0 11.05 8.95 20 20 20h271.87c6.32 0 12.27-2.99 16.05-8.06l58.52-78.64c5.271-7.09 5.271-16.79 0-23.88zm-62.939 38.16c-14.49 0-26.22-11.75-26.22-26.22s11.73-26.22 26.22-26.22c14.47 0 26.22 11.75 26.22 26.22s-11.75 26.22-26.22 26.22z" fill="#97ffd2"/><path d="m414.631 173.674c-1.39 3.4-4.74 5.8-8.64 5.8h-84.91c-5.15 0-9.33-4.18-9.33-9.33v-33.92h64.96c6.32 0 12.27 2.99 16.05 8.06z" fill="#02ffb3"/><path d="m293.74 266.254v67.25h-159.94v-67.25c0-3.29 2.67-5.96 5.96-5.96h148.01c3.301 0 5.97 2.67 5.97 5.96z" fill="#ffdbed"/><path d="m183.997 280.822h-51.789c-2.761 0-4.998-2.238-4.998-4.998s2.237-4.998 4.998-4.998h51.789c2.761 0 4.998 2.238 4.998 4.998s-2.238 4.998-4.998 4.998z" fill="#ff7eb8"/><path d="m238.697 297.699h-106.49c-2.761 0-4.998-2.238-4.998-4.998s2.237-4.998 4.998-4.998h106.49c2.761 0 4.998 2.238 4.998 4.998s-2.237 4.998-4.998 4.998z" fill="#ff7eb8"/><path d="m448.96 249.914v144.02c0 19.75-16.07 35.81-35.81 35.81-19.75 0-35.81-16.06-35.81-35.81v-182.87c3.34-1.55 7.07-2.42 11-2.42s7.65.87 11 2.43v182.86c0 7.62 6.2 13.81 13.81 13.81s13.81-6.19 13.81-13.81v-114.45z" fill="#ffdbed"/><path d="m448.96 249.914v20.1l-22 29.57v-20.1z" fill="#ffc4df"/><path d="m399.341 211.074v11.75c-3.35-1.56-7.07-2.43-11-2.43s-7.66.87-11 2.42v-11.75c3.34-1.55 7.07-2.42 11-2.42 3.929 0 7.649.87 11 2.43z" fill="#ffc4df"/><path d="m415.322 88.078v69.05c0 5.15-4.18 9.33-9.33 9.33h-84.91c-5.15 0-9.33-4.18-9.33-9.33v-69.05c0-5.15 4.18-9.33 9.33-9.33h84.91c5.15-.001 9.33 4.179 9.33 9.33z" fill="#ffa8cf"/><path d="m352.964 108.066h-16.707c-2.762 0-5-2.239-5-5s2.238-5 5-5h16.707c2.762 0 5 2.239 5 5s-2.239 5-5 5z" fill="#ff7eb8"/><path d="m415.322 88.078v69.05c0 5.15-4.18 9.33-9.33 9.33h-16.4c5.15 0 9.33-4.18 9.33-9.33v-69.05c0-5.15-4.18-9.33-9.33-9.33h16.4c5.15-.001 9.33 4.179 9.33 9.33z" fill="#ffc4df"/><path d="m415.322 106.157v50.97c0 5.15-4.18 9.33-9.33 9.33h-84.91c-5.15 0-9.33-4.18-9.33-9.33v-15.65h17.6c2.65 0 5.2-1.05 7.07-2.93l13.28-13.28c1.88-1.87 4.42-2.93 7.08-2.93h38.22c1.36 0 2.69-.28 3.92-.8 1.17-.5 2.24-1.21 3.15-2.13z" fill="#8399fe"/><path d="m415.322 106.157v50.97c0 5.15-4.18 9.33-9.33 9.33h-16.4c5.15 0 9.33-4.18 9.33-9.33v-35.59c1.17-.5 2.24-1.21 3.15-2.13z" fill="#9fb0fe"/><path d="m165.786 411.227c26.815 0 48.552-21.737 48.552-48.552s-21.737-48.552-48.552-48.552h-24.235v97.104z" fill="#4369fd"/><circle cx="141.551" cy="362.675" fill="#ff7eb8" r="48.552"/><path d="m64.393 356.799c-3.9 0-7.568-1.52-10.326-4.278-5.693-5.693-5.693-14.957.001-20.65 5.693-5.693 14.957-5.693 20.65 0 5.694 5.693 5.694 14.957 0 20.65h.001c-.001 0-.001 0-.001 0-2.758 2.758-6.425 4.278-10.325 4.278zm0-19.204c-1.179 0-2.357.449-3.255 1.346-1.794 1.795-1.794 4.715 0 6.51.87.869 2.025 1.349 3.255 1.349 1.229 0 2.385-.479 3.254-1.349h.001c1.794-1.795 1.794-4.715 0-6.51-.898-.897-2.077-1.346-3.255-1.346z" fill="#01eca5"/><path d="m151.869 88.455c-3.739 0-7.479-1.424-10.325-4.271-5.694-5.693-5.694-14.957 0-20.65 5.693-5.693 14.957-5.693 20.65 0 2.759 2.757 4.278 6.425 4.278 10.325s-1.52 7.567-4.278 10.325v.001c-2.846 2.846-6.586 4.27-10.325 4.27zm0-19.196c-1.179 0-2.357.449-3.255 1.346-1.794 1.795-1.794 4.715 0 6.51 1.795 1.793 4.715 1.793 6.51 0 0-.001 0-.001 0-.001.869-.869 1.349-2.024 1.349-3.254s-.479-2.385-1.349-3.254c-.897-.898-2.076-1.347-3.255-1.347z" fill="#8399fe"/><path d="m197.787 92.066h-3.25v-3.25c0-2.762-2.238-5-5-5s-5 2.238-5 5v3.25h-3.25c-2.762 0-5 2.238-5 5s2.238 5 5 5h3.25v3.25c0 2.762 2.238 5 5 5s5-2.238 5-5v-3.25h3.25c2.762 0 5-2.238 5-5s-2.238-5-5-5z" fill="#ff7eb8"/><path d="m354.85 365.876h-3.25v-3.25c0-2.762-2.238-5-5-5s-5 2.238-5 5v3.25h-3.25c-2.762 0-5 2.238-5 5s2.238 5 5 5h3.25v3.25c0 2.762 2.238 5 5 5s5-2.238 5-5v-3.25h3.25c2.762 0 5-2.238 5-5s-2.239-5-5-5z" fill="#ff7eb8"/><path d="m457.21 163.449h-3.25v-3.25c0-2.762-2.238-5-5-5s-5 2.238-5 5v3.25h-3.25c-2.762 0-5 2.238-5 5s2.238 5 5 5h3.25v3.25c0 2.762 2.238 5 5 5s5-2.238 5-5v-3.25h3.25c2.762 0 5-2.238 5-5s-2.238-5-5-5z" fill="#8399fe"/><g fill="#ff7eb8"><path d="m305.9 272.268c3.191-3.146 5.176-7.513 5.176-12.338 0-9.56-7.777-17.337-17.338-17.337-9.56 0-17.337 7.777-17.337 17.337 0 4.825 1.985 9.192 5.176 12.338-3.191 3.146-5.176 7.512-5.176 12.337 0 2.762 2.238 5 5 5s5-2.238 5-5c0-4.046 3.291-7.337 7.337-7.337s7.338 3.291 7.338 7.337c0 2.762 2.238 5 5 5s5-2.238 5-5c0-4.825-1.984-9.191-5.176-12.337zm-19.499-12.338c0-4.046 3.291-7.337 7.337-7.337s7.338 3.291 7.338 7.337-3.292 7.338-7.338 7.338-7.337-3.292-7.337-7.338z"/><path d="m211.934 176.247c-.95-1.135-2.354-1.79-3.834-1.79h-58.588l-3.222-9.967c-.667-2.063-2.589-3.462-4.758-3.462h-14.323c-2.762 0-5 2.238-5 5s2.238 5 5 5h10.685l12.14 37.554h-.86c-2.762 0-5 2.238-5 5s2.238 5 5 5h52.834c2.423 0 4.496-1.736 4.922-4.121l6.092-34.125c.26-1.457-.139-2.954-1.088-4.089zm-14.113 32.335h-37.277l-7.799-24.125h49.383z"/><path d="m159.881 223.265c-7.175 0-13.012 5.837-13.012 13.012s5.837 13.013 13.012 13.013 13.013-5.838 13.013-13.013-5.838-13.012-13.013-13.012zm0 16.024c-1.661 0-3.012-1.352-3.012-3.013s1.351-3.012 3.012-3.012 3.013 1.351 3.013 3.012-1.352 3.013-3.013 3.013z"/><path d="m197.218 223.265c-7.175 0-13.012 5.837-13.012 13.012s5.837 13.013 13.012 13.013 13.012-5.838 13.012-13.013-5.837-13.012-13.012-13.012zm0 16.024c-1.661 0-3.012-1.352-3.012-3.013s1.351-3.012 3.012-3.012 3.012 1.351 3.012 3.012-1.351 3.013-3.012 3.013z"/></g><path d="m267.256 222.453h-5.331c-6.508 0-11.803-5.295-11.803-11.803v-16.457c0-6.508 5.295-11.803 11.803-11.803h5.331c6.508 0 11.803 5.295 11.803 11.803v16.457c0 6.508-5.295 11.803-11.803 11.803zm-5.331-30.062c-.994 0-1.803.809-1.803 1.803v16.457c0 .994.809 1.803 1.803 1.803h5.331c.994 0 1.803-.809 1.803-1.803v-16.457c0-.994-.809-1.803-1.803-1.803z" fill="#b7c5ff"/><path d="m296.072 222.453c-2.762 0-5-2.238-5-5v-25.063h-.444c-2.762 0-5-2.238-5-5s2.238-5 5-5h5.444c2.762 0 5 2.238 5 5v30.063c0 2.762-2.238 5-5 5z" fill="#b7c5ff"/><path d="m147.794 357.673h-1.243v-9.335h5.974c2.762 0 5-2.238 5-5s-2.238-5-5-5h-5.974v-2.199c0-2.762-2.238-5-5-5s-5 2.238-5 5v2.199h-1.243c-8.087 0-14.667 6.58-14.667 14.668s6.58 14.667 14.667 14.667h1.243v9.335h-5.974c-2.762 0-5 2.238-5 5s2.238 5 5 5h5.974v2.199c0 2.762 2.238 5 5 5s5-2.238 5-5v-2.199h1.243c8.087 0 14.667-6.579 14.667-14.667s-6.58-14.668-14.667-14.668zm-12.486 0c-2.573 0-4.667-2.094-4.667-4.667 0-2.574 2.094-4.668 4.667-4.668h1.243v9.335zm12.486 19.335h-1.243v-9.335h1.243c2.573 0 4.667 2.094 4.667 4.668 0 2.573-2.094 4.667-4.667 4.667z" fill="#ffdbed"/><path d="m455.287 219.94-39.188-52.665c.657-.655 1.253-1.372 1.774-2.143 1.547-2.288 2.451-5.044 2.451-8.007v-69.047c0-7.902-6.429-14.331-14.331-14.331h-16.943c-2.762 0-5 2.238-5 5s2.238 5 5 5h16.943c2.388 0 4.331 1.943 4.331 4.331v16.007l-11.807 11.806c-.434.438-.959.792-1.545 1.042-.635.269-1.298.405-1.971.405h-38.22c-3.997 0-7.764 1.558-10.615 4.395l-13.291 13.29c-.919.925-2.203 1.455-3.523 1.455h-12.598v-48.4c0-2.388 1.942-4.331 4.33-4.331h39.865c2.762 0 5-2.238 5-5s-2.238-5-5-5h-39.865c-7.901 0-14.33 6.429-14.33 14.331v43.146h-201.913c-13.785 0-25 11.215-25 25v157.28c0 10.072 6.104 19.02 15.061 22.919-4.386 7.763-6.903 16.717-6.903 26.252 0 29.528 24.023 53.552 53.552 53.552h24.235c29.528 0 53.552-24.023 53.552-53.552 0-8.694-2.096-16.904-5.788-24.171h135.06c2.762 0 5-2.238 5-5s-2.238-5-5-5h-141.625c-9.831-11.833-24.649-19.382-41.199-19.382h-24.235c-16.288 0-30.891 7.319-40.721 18.83-6.422-1.779-10.989-7.694-10.989-14.448v-157.28c0-8.271 6.729-15 15-15h201.914v.225c0 .01-.003.019-.003.029v15.649c0 7.901 6.429 14.33 14.33 14.33h84.91c.245 0 .484-.025.727-.037l40.546 54.489c3.985 5.355 3.985 12.553-.001 17.908l-42.923 57.684v-39.852c9.407-5.629 15.217-15.785 15.217-26.786 0-12.583-7.488-23.444-18.239-28.38-.017-.008-.034-.016-.051-.023-3.942-1.801-8.317-2.813-12.927-2.813-4.583 0-8.935 1.001-12.86 2.783-.076.031-.149.067-.224.101-10.695 4.958-18.134 15.79-18.134 28.333 0 10.989 5.815 21.165 15.218 26.791v132.279c0 22.503 18.307 40.81 40.81 40.81s40.81-18.307 40.81-40.81v-142.364l1.326-1.782c6.643-8.927 6.643-20.923 0-29.848zm-245.949 142.735c0 21.323-15.407 39.103-35.671 42.824 13.007-9.779 21.436-25.335 21.436-42.824 0-17.49-8.429-33.046-21.436-42.825 20.263 3.721 35.671 21.502 35.671 42.825zm-67.787-43.553c24.015 0 43.552 19.538 43.552 43.553s-19.537 43.552-43.552 43.552-43.552-19.537-43.552-43.552 19.537-43.553 43.552-43.553zm187.802-172.644c3.963 0 7.832-1.605 10.604-4.395l13.271-13.271c.956-.951 2.218-1.475 3.554-1.475h38.22c2.02 0 3.994-.402 5.885-1.203 1.797-.768 3.392-1.849 4.721-3.192l4.715-4.714v38.898c0 .894-.273 1.726-.739 2.417-.779 1.152-2.098 1.911-3.59 1.911h-84.908c-2.388 0-4.33-1.942-4.33-4.33v-10.646zm74.988 102.303v-27.808c3.24 3.726 5.217 8.577 5.217 13.891 0 5.194-1.91 10.111-5.217 13.917zm-37.218-13.918c0-5.314 1.978-10.165 5.218-13.891v27.813c-3.308-3.808-5.218-8.732-5.218-13.922zm76.837 159.071c0 16.988-13.821 30.81-30.81 30.81s-30.81-13.821-30.81-30.81v-179.41c1.905-.563 3.915-.877 6-.877s4.095.314 6 .877v179.41c0 10.372 8.438 18.81 18.81 18.81s18.81-8.438 18.81-18.81v-112.794l12-16.129zm-22 0c0 4.857-3.952 8.81-8.81 8.81s-8.81-3.952-8.81-8.81v-75.68l17.619-23.678v99.358z" fill="#2626bc"/></svg>