<svg id="Capa_1" enable-background="new 0 0 512 512" height="512" viewBox="0 0 512 512" width="512" xmlns="http://www.w3.org/2000/svg" xmlns:xlink="http://www.w3.org/1999/xlink"><linearGradient id="SVGID_1_" gradientUnits="userSpaceOnUse" x1="239.382" x2="329.378" y1="99.316" y2="565.793"><stop offset=".0112" stop-color="#dcfdee"/><stop offset=".7774" stop-color="#ccddfb"/><stop offset="1" stop-color="#c7d3ff"/></linearGradient><path d="m471.476 120.81c-65.417-50.293-128.867-9.306-199.64-23.797-71.285-14.597-99.685-63.201-180.876-40.766-71.922 19.874-115.562 99.552-76.024 166.259 11.267 19.009 30.461 33.35 38.305 54.619 12.653 34.311-6.607 60.653-2.85 94.372 15.612 140.102 229.574 85.834 308.303 42.245 123.47-68.36 206.998-220.497 112.782-292.932z" fill="url(#SVGID_1_)"/><path d="m413.473 408.685h-20.711v-193.15c0-11.52-9.33-20.85-20.84-20.85h-59.504v-3.848c0-9.422-7.638-17.06-17.06-17.06h-6.596v-29.542c0-27.99-22.771-50.762-50.762-50.762s-50.762 22.771-50.762 50.762v29.542h-6.596c-9.422 0-17.06 7.638-17.06 17.06v3.848h-59.509c-11.51 0-20.84 9.33-20.84 20.85v193.15h-20.708c-6.89 0-12.476 5.586-12.476 12.476v11.465c0 12.09 9.797 21.898 21.898 21.898h332.104c12.101 0 21.898-9.808 21.898-21.898v-11.465c0-6.89-5.586-12.476-12.476-12.476zm-203.235-264.45c0-15.308 12.454-27.762 27.762-27.762s27.762 12.454 27.762 27.762v29.542h-55.523v-29.542z" fill="#2626bc" opacity=".11"/><path d="m295.262 185.538c-6.352 0-11.5-5.148-11.5-11.5v-47.803c0-15.308-12.454-27.762-27.762-27.762s-27.762 12.454-27.762 27.762v47.803c0 6.352-5.148 11.5-11.5 11.5s-11.5-5.148-11.5-11.5v-47.803c0-27.99 22.771-50.762 50.762-50.762s50.762 22.771 50.762 50.762v47.803c0 6.351-5.149 11.5-11.5 11.5z" fill="#b7c5ff"/><path d="m410.763 197.535v208.93c0 2.76-2.24 5-5 5h-304.53v-213.93c0-11.52 9.33-20.85 20.84-20.85h267.85c11.51 0 20.84 9.33 20.84 20.85z" fill="#b7c5ff"/><path d="m375.298 337.091h-238.596c-2.761 0-5-2.239-5-5v-60.451c0-2.761 2.239-5 5-5h238.596c2.761 0 5 2.239 5 5v60.451c0 2.761-2.238 5-5 5z" fill="#dcfdee"/><path d="m313.358 310.9h-114.716c-9.422 0-17.06-7.638-17.06-17.06v-105.717c0-9.422 7.638-17.06 17.06-17.06h114.716c9.422 0 17.06 7.638 17.06 17.06v105.717c0 9.422-7.638 17.06-17.06 17.06z" fill="#97ffd2"/><path d="m410.763 365.837v40.63c0 2.76-2.24 5-5 5h-304.53v-45.63z" fill="#01eca5"/><path d="m443.949 403.161v11.465c0 12.09-9.797 21.898-21.898 21.898h-332.104c-12.101 0-21.898-9.808-21.898-21.898v-11.465c0-6.89 5.586-12.476 12.476-12.476h107.067c1.849 0 3.548 1.021 4.416 2.654l6.56 12.348c.868 1.633 2.566 2.654 4.416 2.654h106.031c1.849 0 3.548-1.021 4.416-2.654l6.56-12.348c.868-1.633 2.566-2.654 4.415-2.654h107.067c6.89 0 12.476 5.586 12.476 12.476z" fill="#97ffd2"/><path d="m443.95 403.157v11.47c0 12.09-9.8 21.9-21.9 21.9h-14.72c12.1 0 21.9-9.81 21.9-21.9v-11.47c0-6.89-5.59-12.47-12.48-12.47h14.72c6.89 0 12.48 5.58 12.48 12.47z" fill="#dcfdee"/><path d="m149.65 408.804h-43.333c-2.761 0-5-2.239-5-5v-13.118h53.333v13.118c0 2.761-2.239 5-5 5z" fill="#ff7eb8"/><path d="m405.558 408.804h-43.333c-2.761 0-5-2.239-5-5v-13.118h53.333v13.118c0 2.761-2.239 5-5 5z" fill="#ff7eb8"/><path d="m313.358 295.614h-114.716c-9.422 0-17.06-7.638-17.06-17.06v-105.717c0-9.422 7.638-17.06 17.06-17.06h114.716c9.422 0 17.06 7.638 17.06 17.06v105.716c0 9.423-7.638 17.061-17.06 17.061z" fill="#ffa8cf"/><path d="m330.42 172.84v105.71c0 9.43-7.64 17.06-17.06 17.06h-16.74c9.43 0 17.07-7.63 17.07-17.06v-105.71c0-9.42-7.64-17.06-17.07-17.06h16.74c9.42 0 17.06 7.64 17.06 17.06z" fill="#ffc4df"/><path d="m251.762 196.213-11.015 22.198c-2.171 4.375-2.171 9.514 0 13.889l11.015 22.198c1.739 3.504 6.737 3.504 8.476 0l11.015-22.198c2.171-4.375 2.171-9.514 0-13.889l-11.015-22.198c-1.739-3.504-6.737-3.504-8.476 0z" style="fill:#8399fe;stroke:#2626bc;stroke-width:10;stroke-linecap:round;stroke-linejoin:round;stroke-miterlimit:10"/><path d="m99.65 152.985c-3.739 0-7.479-1.424-10.325-4.271-5.693-5.692-5.693-14.957-.001-20.651 5.693-5.693 14.958-5.693 20.651 0 2.759 2.758 4.278 6.426 4.278 10.326s-1.52 7.567-4.278 10.325v.001c-2.846 2.847-6.585 4.27-10.325 4.27zm0-19.197c-1.179 0-2.357.449-3.255 1.346-1.794 1.795-1.794 4.716 0 6.511 1.795 1.793 4.715 1.793 6.51 0 0-.001 0-.001 0-.001.869-.869 1.349-2.024 1.349-3.254s-.479-2.386-1.349-3.256c-.897-.897-2.076-1.346-3.255-1.346z" fill="#8399fe"/><path d="m171.068 138.346c-3.9 0-7.568-1.52-10.326-4.278-2.758-2.757-4.277-6.425-4.277-10.325s1.52-7.568 4.278-10.326c5.693-5.691 14.957-5.694 20.65.001 5.694 5.693 5.694 14.957 0 20.65h.001c-.001 0-.001 0-.001 0-2.757 2.758-6.424 4.278-10.325 4.278zm0-19.204c-1.179 0-2.357.449-3.255 1.346-.869.87-1.349 2.025-1.349 3.255s.479 2.385 1.349 3.254c.87.87 2.025 1.35 3.255 1.35s2.385-.479 3.254-1.349h.001c1.794-1.795 1.794-4.715 0-6.51-.897-.897-2.076-1.346-3.255-1.346z" fill="#01eca5"/><path d="m452.84 355.104h-3.25v-3.25c0-2.762-2.238-5-5-5s-5 2.238-5 5v3.25h-3.25c-2.762 0-5 2.238-5 5s2.238 5 5 5h3.25v3.25c0 2.762 2.238 5 5 5s5-2.238 5-5v-3.25h3.25c2.762 0 5-2.238 5-5s-2.238-5-5-5z" fill="#ff7eb8"/><path d="m75.79 345h-3.25v-3.25c0-2.762-2.238-5-5-5s-5 2.238-5 5v3.25h-3.25c-2.762 0-5 2.238-5 5s2.238 5 5 5h3.25v3.25c0 2.762 2.238 5 5 5s5-2.238 5-5v-3.25h3.25c2.762 0 5-2.238 5-5s-2.238-5-5-5z" fill="#ff7eb8"/><path d="m139.233 89.405h-3.25v-3.25c0-2.762-2.238-5-5-5s-5 2.238-5 5v3.25h-3.25c-2.762 0-5 2.238-5 5s2.238 5 5 5h3.25v3.25c0 2.762 2.238 5 5 5s5-2.238 5-5v-3.25h3.25c2.762 0 5-2.238 5-5s-2.238-5-5-5z" fill="#ff7eb8"/><g fill="#2626bc"><path d="m431.474 385.686h-15.706v-188.152c0-14.251-11.594-25.846-25.845-25.846h-54.534c-.6-11.632-10.252-20.911-22.03-20.911h-1.597v-24.543c0-30.747-25.015-55.762-55.762-55.762s-55.762 25.015-55.762 55.762v24.543h-1.597c-11.779 0-21.43 9.279-22.03 20.911h-54.536c-14.251 0-25.846 11.595-25.846 25.846v188.151h-15.704c-9.636 0-17.476 7.84-17.476 17.476v11.465c0 14.831 12.066 26.897 26.897 26.897 2.762 0 5-2.238 5-5s-2.238-5-5-5c-9.317 0-16.897-7.58-16.897-16.897v-11.465c0-4.122 3.354-7.476 7.476-7.476h15.791v8.118c0 5.514 4.486 10 10 10h43.333c5.514 0 10-4.486 10-10v-8.118h27.943l6.56 12.348c1.739 3.273 5.123 5.308 8.831 5.308h106.031c3.707 0 7.091-2.033 8.832-5.308l6.56-12.348h27.818v8.118c0 5.514 4.486 10 10 10h43.333c5.514 0 10-4.486 10-10v-8.118h15.916c4.122 0 7.476 3.354 7.476 7.476v11.465c0 9.317-7.581 16.897-16.898 16.897h-304.004c-2.762 0-5 2.238-5 5s2.238 5 5 5h304.004c14.832 0 26.898-12.066 26.898-26.897v-11.465c0-9.636-7.84-17.475-17.475-17.475zm-221.236-259.452c0-25.233 20.528-45.762 45.762-45.762s45.762 20.528 45.762 45.762v24.543h-13v-24.543c0-18.064-14.697-32.762-32.762-32.762s-32.762 14.697-32.762 32.762v24.543h-13zm68.524 24.543h-45.523v-24.543c0-12.551 10.211-22.762 22.762-22.762s22.762 10.211 22.762 22.762v24.543zm-156.686 30.911h54.506v96.865c0 12.164 9.896 22.06 22.06 22.06h114.717c12.164 0 22.06-9.896 22.06-22.06v-73.766c0-2.762-2.238-5-5-5s-5 2.238-5 5v73.766c0 6.649-5.41 12.06-12.06 12.06h-114.717c-6.649 0-12.06-5.41-12.06-12.06v-105.716c0-6.649 5.41-12.06 12.06-12.06h114.717c6.649 0 12.06 5.41 12.06 12.06v3.852c0 2.762 2.238 5 5 5h59.505c8.737 0 15.845 7.108 15.845 15.846v163.304h-299.539v-163.305c0-8.737 7.109-15.846 15.846-15.846zm27.58 222.116h-43.34v-8.118h43.336zm165.918-12.81-6.56 12.347-106.031.001-6.56-12.346c-1.738-3.275-5.122-5.311-8.831-5.311h-81.362v-14.848h299.537v14.848h-81.361c-3.708.001-7.092 2.035-8.832 5.309zm46.651 12.81v-8.118h43.336l.004 8.118z"/><path d="m264.67 381.804h-17.342c-2.762 0-5 2.238-5 5s2.238 5 5 5h17.342c2.762 0 5-2.238 5-5s-2.238-5-5-5z"/><path d="m264.717 193.99c-1.654-3.334-4.995-5.405-8.717-5.405s-7.063 2.071-8.717 5.405l-11.015 22.198c-2.849 5.74-2.849 12.594 0 18.334l11.015 22.198c1.654 3.334 4.995 5.405 8.717 5.405s7.063-2.071 8.717-5.405l11.015-22.198c2.849-5.74 2.849-12.594 0-18.334zm-8.476 4.444s0 .001-.001.002l-4.479-2.223zm10.533 31.643-10.774 21.714-10.774-21.714c-1.467-2.956-1.467-6.487 0-9.443l10.774-21.714 10.774 21.714c1.467 2.956 1.467 6.487 0 9.443z"/></g><path d="m385.451 257.833c0-9.16-7.453-16.613-16.613-16.613s-16.613 7.453-16.613 16.613c0 4.518 1.818 8.615 4.755 11.613-2.937 2.998-4.755 7.096-4.755 11.613 0 2.762 2.238 5 5 5s5-2.238 5-5c0-3.646 2.967-6.613 6.613-6.613s6.613 2.967 6.613 6.613c0 2.762 2.238 5 5 5s5-2.238 5-5c0-4.518-1.818-8.615-4.755-11.613 2.937-2.998 4.755-7.095 4.755-11.613zm-16.613-6.613c3.646 0 6.613 2.967 6.613 6.613s-2.967 6.613-6.613 6.613-6.613-2.967-6.613-6.613 2.966-6.613 6.613-6.613z" fill="#ff7eb8"/></svg>