<svg id="Capa_1" enable-background="new 0 0 512 512" height="512" viewBox="0 0 512 512" width="512" xmlns="http://www.w3.org/2000/svg" xmlns:xlink="http://www.w3.org/1999/xlink"><linearGradient id="SVGID_1_" gradientUnits="userSpaceOnUse" x1="432.334" x2="198.334" y1="502.114" y2="192.114"><stop offset="0" stop-color="#c7d3ff"/><stop offset=".593" stop-color="#e7d8f5"/><stop offset=".997" stop-color="#ffdbed"/></linearGradient><path d="m501.873 153.052c-22.357-56.888-91.226-91.003-149.556-68.427-66.582 25.769-44.506 131.673-104.983 153.088-32.669 11.568-80.963-31.644-113.969-38.27-60.821-12.21-115.881 30.705-129.439 90.134-13.832 60.63 8.353 141.61 74.967 158.066 79.35 19.602 120.683-51.729 187.249-72.211 68.31-21.019 144.263 28.622 200.814-31.776 41.78-44.622 57.055-134.273 34.917-190.604z" fill="url(#SVGID_1_)"/><path d="m372.965 275.148c19.086-18.617 25.997-47.66 15.171-73.797s-36.25-41.786-62.91-41.455l-12.866-31.063c-3.868-9.338-12.421-15.314-21.808-16.337-6.783-.73-13.853 1.216-19.231 5.446-8.738 6.763-12.556 18.452-9.062 29.284l-20.291 11.588c-3.646-19.773-20.544-35.074-40.932-36.38-26.953-1.726-49.18 20.5-47.453 47.453.779 12.162 6.542 23.079 15.259 30.686l-69.937 39.944c-1.786 1.021-3.418 2.213-4.898 3.537-8.74 7.817-11.962 20.41-7.58 31.679-.005.002-.009.003-.014.005-23.851 9.879-35.177 37.223-25.297 61.073s37.223 35.177 61.073 25.297c.005-.002.009-.004.014-.006 5.697 12.934 20.021 19.808 33.717 16.069l16.953-4.627 33.531 80.952c5.031 12.147 18.957 17.915 31.104 12.884l18.399-7.621c6.678-2.766 10.447-9.888 8.978-16.966l-4.211-20.289 27.851-11.536c6.107-2.53 9.007-9.531 6.477-15.637l-20.512-49.522 62.912-17.173c6.459 12.603 22.22 17.957 35.034 12.007 12.799-5.943 18.789-21.409 13.395-34.433z" fill="#2626bc" opacity=".11"/><path d="m423.917 336.722h-3.25v-3.25c0-2.761-2.238-5-5-5s-5 2.239-5 5v3.25h-3.25c-2.762 0-5 2.239-5 5s2.238 5 5 5h3.25v3.25c0 2.761 2.238 5 5 5s5-2.239 5-5v-3.25h3.25c2.762 0 5-2.239 5-5s-2.238-5-5-5z" fill="#ff7eb8"/><path d="m310.167 51.052h-3.25v-3.25c0-2.761-2.238-5-5-5s-5 2.239-5 5v3.25h-3.25c-2.762 0-5 2.239-5 5s2.238 5 5 5h3.25v3.25c0 2.761 2.238 5 5 5s5-2.239 5-5v-3.25h3.25c2.762 0 5-2.239 5-5s-2.238-5-5-5z" fill="#8399fe"/><path d="m122.75 157.457h-3.25v-3.25c0-2.761-2.238-5-5-5s-5 2.239-5 5v3.25h-3.25c-2.762 0-5 2.239-5 5s2.238 5 5 5h3.25v3.25c0 2.761 2.238 5 5 5s5-2.239 5-5v-3.25h3.25c2.762 0 5-2.239 5-5s-2.238-5-5-5z" fill="#01eca5"/><path d="m338.22 424.969c-3.739 0-7.479-1.423-10.325-4.27-5.693-5.694-5.693-14.958 0-20.652s14.957-5.693 20.65 0 5.693 14.958.001 20.651h-.001c-2.847 2.848-6.586 4.271-10.325 4.271zm6.79-7.806h.01zm-6.79-11.391c-1.179 0-2.357.449-3.255 1.346-1.794 1.794-1.794 4.715.001 6.51 1.793 1.794 4.714 1.794 6.509 0 1.794-1.794 1.794-4.715 0-6.509-.898-.898-2.077-1.347-3.255-1.347z" fill="#01eca5"/><path d="m110.271 406.069c-2.801 0-5.545-.81-7.946-2.376-6.744-4.398-8.653-13.463-4.256-20.208 4.398-6.744 13.462-8.655 20.209-4.255 3.267 2.13 5.509 5.406 6.313 9.223s.073 7.718-2.058 10.985c-2.131 3.267-5.406 5.509-9.223 6.313-1.011.213-2.029.318-3.039.318zm.038-19.209c-1.505 0-2.981.735-3.863 2.087-1.386 2.125-.783 4.983 1.343 6.37 1.029.672 2.257.9 3.462.648 1.203-.253 2.235-.96 2.906-1.99h.001c.671-1.03.901-2.259.648-3.462-.254-1.203-.96-2.235-1.99-2.907-.774-.505-1.645-.746-2.507-.746z" fill="#8399fe"/><circle cx="116.302" cy="300.592" fill="#02ffb3" r="46.743"/><path d="m300.53 392.64-39.13 16.2-23.1-55.77-12.38-29.88 50.19-20.78 15.01 36.24 15.88 38.35c2.53 6.11-.37 13.11-6.47 15.64z" fill="#ffa8cf"/><path d="m291.12 338.65-52.82 14.42-12.38-29.88 50.19-20.78z" fill="#ff7eb8"/><path d="m267.91 441.43-18.4 7.62c-12.15 5.03-26.07-.74-31.11-12.89l-28.9-69.77-7.17-17.32 72.66-30.1 5.8 27.96 16.1 77.53c1.46 7.08-2.3 14.2-8.98 16.97z" fill="#02ffb3"/><path d="m260.79 346.93-71.29 19.46-7.17-17.32 72.66-30.1z" fill="#01eca5"/><path d="m373.89 303.62-205.97 56.22c-13.91 3.79-28.46-3.34-33.97-16.66l-35.29-85.19c-5.51-13.32-.27-28.65 12.25-35.8l185.4-105.88z" fill="#8399fe"/><path d="m253.57 202.48c1.29 2.94-1.7 5.93-4.64 4.64l-14.23-6.27c-8.05 5.34-17.92 8.14-28.49 7.24-14.31-1.22-26.75-9.32-33.99-20.93l77.4-44.19c2.69 5.1 4.41 10.78 4.92 16.78.9 10.57-1.9 20.45-7.23 28.5z" fill="#6583fe"/><path d="m282.732 277.142-52.761 14.399c-3.477.949-5.332 4.733-3.953 8.063l5.917 14.286c1.153 2.784 4.197 4.276 7.104 3.483l52.761-14.399c3.477-.949 5.332-4.733 3.953-8.063l-5.917-14.286c-1.153-2.784-4.196-4.276-7.104-3.483z" fill="#ffdbed"/><path d="m235.17 266.568-13.965 3.811c-3.477.949-5.332 4.733-3.953 8.063l.421 1.017c1.153 2.784 4.197 4.276 7.104 3.483l13.965-3.811c3.477-.949 5.332-4.733 3.953-8.063l-.421-1.017c-1.153-2.785-4.196-4.277-7.104-3.483z" fill="#b7c5ff"/><path d="m157.282 195.695 62.166 150.082-51.525 14.062c-13.91 3.792-28.459-3.343-33.974-16.656l-35.29-85.197c-5.514-13.313-.272-28.647 12.246-35.8z" fill="#d2deff"/><path d="m312.38 146.67c34.27-14.195 73.56 2.079 87.755 36.349s-2.079 73.56-36.349 87.755z" fill="#ffdbed"/><path d="m383.376 322.777c-13.629 5.645-29.254-.827-34.899-14.456l-73.472-177.377c-5.645-13.629.827-29.254 14.456-34.899 13.629-5.645 29.254.827 34.899 14.456l73.472 177.377c5.644 13.629-.828 29.254-14.456 34.899z" fill="#ff7eb8"/><path d="m324.358 110.504 73.47 177.372c5.647 13.634-.824 29.256-14.457 34.903-2.975 1.232-6.047 1.883-9.093 2.005 8.025-7.366 11.01-19.238 6.599-29.886l-73.47-177.372c-2.826-6.822-8.146-11.847-14.459-14.453-3.55-1.47-7.421-2.185-11.34-2.013 2.24-2.068 4.873-3.78 7.847-5.012 6.822-2.826 14.137-2.617 20.444.004 6.313 2.605 11.633 7.629 14.459 14.452z" fill="#ffa8cf"/><path d="m146.176 301.8-34.554 14.313c-6.259 2.593-13.436-.38-16.028-6.639-2.593-6.259.38-13.436 6.639-16.028l34.554-14.313z" fill="#ff7eb8"/><path d="m165.584 151.555c-1.726-26.953 20.5-49.18 47.453-47.453 21.825 1.398 39.656 18.833 41.506 40.624.897 10.57-1.903 20.446-7.238 28.497l6.264 14.227c1.294 2.938-1.7 5.932-4.638 4.638l-14.227-6.264c-8.05 5.335-17.927 8.135-28.497 7.238-21.79-1.851-39.226-19.682-40.623-41.507z" fill="#02ffb3"/><g fill="#2626bc"><path d="m426.168 175.816 9.467-3.921c2.552-1.057 3.763-3.981 2.706-6.533s-3.983-3.761-6.532-2.707l-9.467 3.921c-2.552 1.057-3.763 3.981-2.706 6.533.797 1.926 2.659 3.088 4.621 3.088.638.001 1.286-.122 1.911-.381z"/><path d="m419.489 137.296c-2.352-1.448-5.432-.716-6.88 1.636l-6.631 10.768c-1.447 2.351-.716 5.431 1.636 6.879.817.503 1.723.743 2.617.743 1.679 0 3.317-.845 4.263-2.379l6.631-10.768c1.447-2.351.716-5.431-1.636-6.879z"/><path d="m441.147 192.516-12.302-2.925c-2.684-.641-5.382 1.021-6.021 3.708s1.021 5.382 3.708 6.021l12.302 2.925c.389.093.777.137 1.16.137 2.263 0 4.314-1.547 4.86-3.844.64-2.687-1.02-5.383-3.707-6.022z"/><path d="m404.755 181.105c-10.87-26.241-35.917-43.533-64.176-44.512l-11.6-28.005c-3.241-7.825-9.336-13.92-17.162-17.162-7.824-3.241-16.445-3.241-24.27 0-7.826 3.242-13.921 9.336-17.162 17.162-2.374 5.731-3.001 11.886-1.898 17.845l-11.335 6.473c-6.279-18.667-23.486-32.493-43.795-33.794-14.281-.911-28.254 4.344-38.337 14.426-10.082 10.083-15.34 24.056-14.426 38.337.711 11.107 5.176 21.281 12.121 29.255l-64.291 36.718c-13.066 7.461-19.391 22.626-16.047 36.879-23.651 12.308-34.144 40.887-23.88 65.667 8.212 19.825 27.451 31.957 47.827 31.957 5.146 0 10.366-.785 15.499-2.405 6.156 9.92 17.065 15.904 28.596 15.904 2.922 0 5.885-.384 8.817-1.185l85.299-23.285 17.455 84.098c.979 4.72-1.542 9.485-5.996 11.331l-18.398 7.621c-9.578 3.967-20.604-.597-24.572-10.178l-23.354-56.384c-1.056-2.551-3.984-3.761-6.532-2.706-2.552 1.057-3.763 3.982-2.706 6.533l23.354 56.384c4.591 11.082 15.342 17.782 26.651 17.782 3.667 0 7.394-.705 10.985-2.193l18.398-7.621c8.885-3.68 13.915-13.185 11.961-22.601l-3.37-16.237 24.028-9.953c8.644-3.581 12.763-13.526 9.183-22.17l-18.342-44.282 29.037-7.927c2.664-.728 4.234-3.477 3.507-6.141-.727-2.663-3.474-4.233-6.14-3.507l-97.304 26.561-58.79-141.933 16.789-9.589c7.22 5.441 15.944 8.972 25.406 9.775 1.461.124 2.916.186 4.363.186 8.838 0 17.352-2.305 24.959-6.765l11.81 5.2c3.239 1.427 6.951.731 9.456-1.773 2.504-2.504 3.199-6.216 1.772-9.457l-5.2-11.809c5.191-8.853 7.462-18.931 6.58-29.322-.033-.391-.084-.777-.126-1.165l12.328-7.041 72.13 174.137c5.053 12.2 16.888 19.576 29.338 19.576 4.036 0 8.14-.776 12.094-2.414 7.826-3.242 13.921-9.336 17.162-17.162s3.241-16.445-.001-24.271l-11.6-28.005c19.291-20.674 24.775-50.612 13.905-76.853zm-327.02 135.461c-8.11-19.579-.163-42.101 18.088-52.348l9.358 22.593-4.863 2.014c-4.262 1.765-7.581 5.084-9.346 9.345-1.766 4.261-1.766 8.955 0 13.216 2.751 6.643 9.196 10.66 15.976 10.66 2.198 0 4.432-.422 6.585-1.314l4.864-2.015 9.142 22.071c-20.166 5.671-41.678-4.603-49.804-24.222zm61.908-17.472-29.935 12.399c-3.707 1.535-7.963-.231-9.496-3.934-.742-1.793-.742-3.769 0-5.562.743-1.793 2.141-3.19 3.934-3.934l29.935-12.399zm162.741 79.818c1.47 3.55-.222 7.635-3.771 9.105l-22.27 9.224-12.142-58.5 19.355-5.284zm-89.728-36.467-46.053 12.572c-11.444 3.126-23.5-2.784-28.041-13.747l-10.926-26.379 15.834-6.558 2.666 6.437c.797 1.925 2.659 3.088 4.621 3.088.638 0 1.286-.123 1.911-.382 2.552-1.057 3.763-3.982 2.706-6.533l-18.764-45.299c-1.057-2.551-3.984-3.761-6.532-2.706-2.552 1.057-3.763 3.982-2.706 6.533l2.881 6.955-15.834 6.558-11.145-26.907c-4.54-10.961-.195-23.664 10.107-29.547l41.454-23.675zm30.073-167.207 4.729 10.737-10.737-4.728c-1.558-.686-3.358-.532-4.776.408-7.503 4.971-16.254 7.188-25.313 6.424-19.316-1.64-34.817-17.479-36.057-36.843-.731-11.413 3.466-22.576 11.517-30.626 7.448-7.448 17.562-11.599 28.072-11.599.849 0 1.701.027 2.555.082 19.363 1.24 35.203 16.742 36.843 36.058.77 9.057-1.452 17.81-6.424 25.312-.942 1.417-1.095 3.217-.409 4.775zm150.483 131.171c-2.219 5.357-6.392 9.53-11.749 11.749-5.359 2.219-11.26 2.219-16.617 0s-9.53-6.392-11.75-11.75l-73.472-177.377c-2.219-5.357-2.219-11.258 0-16.616 2.219-5.357 6.392-9.53 11.749-11.75 2.709-1.122 5.516-1.653 8.28-1.653 8.523 0 16.627 5.051 20.087 13.403l73.472 177.376c2.219 5.358 2.219 11.26 0 16.618zm-6.638-58.773-41.719-100.719c22.425 2.447 41.896 16.852 50.662 38.015s5.184 45.118-8.943 62.704z"/><path d="m166.04 306.526c.797 1.925 2.659 3.088 4.621 3.088.638 0 1.286-.123 1.911-.382 2.552-1.057 3.763-3.982 2.706-6.533l-18.763-45.299c-1.056-2.551-3.984-3.761-6.532-2.706-2.552 1.057-3.763 3.982-2.706 6.533z"/></g><circle cx="190.189" cy="148.617" fill="#fff" r="5.59"/><circle cx="210.099" cy="148.617" fill="#fff" r="5.59"/><circle cx="230.009" cy="148.617" fill="#fff" r="5.59"/></svg>