<?xml version="1.0" encoding="utf-8"?>
<!-- Generator: Adobe Illustrator 19.2.1, SVG Export Plug-In . SVG Version: 6.00 Build 0)  -->
<svg version="1.1" id="Capa_1" xmlns="http://www.w3.org/2000/svg" xmlns:xlink="http://www.w3.org/1999/xlink" x="0px" y="0px"
	 viewBox="0 0 512 512" style="enable-background:new 0 0 512 512;" xml:space="preserve">
<style type="text/css">
	.st0{fill:url(#SVGID_1_);}
	.st1{opacity:0.1;fill:#0000CC;enable-background:new    ;}
	.st2{fill:#4D4DFF;}
	.st3{fill:#FF8B00;}
	.st4{fill:#FFFFFF;}
	.st5{fill:#FFC599;}
	.st6{fill:#FFAB66;}
	.st7{fill:#FF7300;}
	.st8{fill:#FF4D4D;}
	.st9{fill:#FF9494;}
	.st10{fill:#FF9D33;}
	.st11{fill:#0000CC;}
	.st12{fill:#FF6C6C;}
	.st13{fill:#6C6CFF;}
	.st14{fill:none;stroke:#1D1D1B;stroke-linecap:round;stroke-miterlimit:10;}
</style>
<linearGradient id="SVGID_1_" gradientUnits="userSpaceOnUse" x1="-107" y1="255.177" x2="724.004" y2="255.177" gradientTransform="matrix(1 0 0 -1 0 511.89)">
	<stop  offset="7.000001e-003" style="stop-color:#9494FF"/>
	<stop  offset="0.992" style="stop-color:#FFE8DC;stop-opacity:0"/>
</linearGradient>
<path class="st0" d="M512,256.7c0-27.6-12.5-53.5-34.3-75.8c-15.2-15.5-27.9-33.3-37.5-52.8C409.3,65.9,356.6,24.9,296.8,24.9
	c-42.5,0-81.4,20.7-111.4,55c-19.9,22.7-45,40.1-73,51.4C44.6,158.5,0,204.5,0,256.7s44.6,98.2,112.4,125.4
	c28,11.2,53.1,28.7,73,51.4c30,34.3,68.9,55,111.4,55c59.8,0,112.4-41,143.3-103.2c9.7-19.5,22.3-37.2,37.5-52.8
	C499.5,310.2,512,284.3,512,256.7z"/>
<path class="st1" d="M448.9,285c5.5,0,10-4.5,10-10v-68.4H53.1v178.2c0,18.7,15.1,33.8,33.8,33.8h223.4
	c3.4,37.2,34.7,66.4,72.8,66.4c40.4,0,73.1-32.7,73.1-73.1c0-33.8-22.9-62.1-54-70.6V285L448.9,285L448.9,285z"/>
<path class="st2" d="M392.3,177.5H86.9c-18.7,0-33.8-15.1-33.8-33.8s15.1-33.8,33.8-33.8h315.4v57.6
	C402.3,173,397.8,177.5,392.3,177.5L392.3,177.5z"/>
<path class="st3" d="M448.9,264H100.7c-5.5,0-10-4.5-10-10V72.3c0-5.5,4.5-10,10-10h348.2c5.5,0,10,4.5,10,10V254
	C458.9,259.5,454.4,264,448.9,264z"/>
<path class="st4" d="M416.5,98.7l2.5-10.1c0.8-3.2-1.6-6.2-4.9-6.2H135.4c-3.2,0-5.6,3-4.9,6.2l2.5,10.1c0.9,3.7-2.4,7-6.1,6.1
	l-10.1-2.5c-3.2-0.8-6.2,1.6-6.2,4.9v112.2c0,3.2,3,5.6,6.2,4.9l10.1-2.5c3.7-0.9,7,2.4,6.1,6.1l-2.5,10.1c-0.8,3.2,1.6,6.2,4.9,6.2
	h278.7c3.2,0,5.6-3,4.9-6.2l-2.5-10.1c-0.9-3.7,2.4-7,6.1-6.1l10.1,2.5c3.2,0.8,6.2-1.6,6.2-4.9V107.1c0-3.2-3-5.6-6.2-4.9
	l-10.1,2.5C418.9,105.6,415.6,102.3,416.5,98.7L416.5,98.7z"/>
<circle class="st5" cx="274.8" cy="163.2" r="57.3"/>
<circle class="st6" cx="230.8" cy="119.2" r="18.7"/>
<circle class="st6" cx="318.8" cy="207.1" r="18.7"/>
<path class="st7" d="M281.3,188.4h-21c-2.8,0-5-2.2-5-5s2.2-5,5-5h21c2.8,0,5.1-2.3,5.1-5.1s-2.3-5.1-5.1-5.1h-13
	c-8.3,0-15.1-6.8-15.1-15.1S260,138,268.3,138h21c2.8,0,5,2.2,5,5s-2.2,5-5,5h-21c-2.8,0-5.1,2.3-5.1,5.1s2.3,5.1,5.1,5.1h13
	c8.3,0,15.1,6.8,15.1,15.1S289.7,188.4,281.3,188.4z"/>
<path class="st7" d="M274.8,195.9c-2.8,0-5-2.2-5-5v-55.4c0-2.8,2.2-5,5-5s5,2.2,5,5v55.4C279.8,193.6,277.6,195.9,274.8,195.9z"/>
<circle class="st8" cx="362.9" cy="196.7" r="5.6"/>
<circle class="st8" cx="379.8" cy="196.7" r="5.6"/>
<path class="st8" d="M396.7,191.1c3.1,0,5.6,2.5,5.6,5.6s-2.5,5.6-5.6,5.6s-5.6-2.5-5.6-5.6S393.6,191.1,396.7,191.1"/>
<circle class="st8" cx="362.9" cy="129.6" r="5.6"/>
<circle class="st8" cx="379.8" cy="129.6" r="5.6"/>
<path class="st8" d="M396.7,124c3.1,0,5.6,2.5,5.6,5.6s-2.5,5.6-5.6,5.6s-5.6-2.5-5.6-5.6S393.6,124,396.7,124"/>
<circle class="st8" cx="152.9" cy="196.7" r="5.6"/>
<circle class="st8" cx="169.8" cy="196.7" r="5.6"/>
<path class="st8" d="M186.7,191.1c3.1,0,5.6,2.5,5.6,5.6s-2.5,5.6-5.6,5.6s-5.6-2.5-5.6-5.6S183.6,191.1,186.7,191.1"/>
<circle class="st8" cx="152.9" cy="129.6" r="5.6"/>
<circle class="st8" cx="169.8" cy="129.6" r="5.6"/>
<path class="st8" d="M186.7,124c3.1,0,5.6,2.5,5.6,5.6s-2.5,5.6-5.6,5.6s-5.6-2.5-5.6-5.6C181.1,126.5,183.6,124,186.7,124"/>
<path class="st8" d="M402.3,187.5v200c0,5.5-4.5,10-10,10H86.9c-18.7,0-33.8-15.1-33.8-33.8v-220c0,18.7,15.1,33.8,33.8,33.8h305.4
	C397.8,177.5,402.3,182,402.3,187.5L402.3,187.5z"/>
<g>
	<path class="st9" d="M371,217.6h-12c-2.8,0-5-2.2-5-5s2.2-5,5-5h12c2.8,0,5,2.2,5,5S373.8,217.6,371,217.6z"/>
	<path class="st9" d="M331.2,217.6h-12c-2.8,0-5-2.2-5-5s2.2-5,5-5h12c2.8,0,5,2.2,5,5S333.9,217.6,331.2,217.6z"/>
	<path class="st9" d="M291.3,217.6h-12c-2.8,0-5-2.2-5-5s2.2-5,5-5h12c2.8,0,5,2.2,5,5S294.1,217.6,291.3,217.6z"/>
	<path class="st9" d="M251.4,217.6h-12c-2.8,0-5-2.2-5-5s2.2-5,5-5h12c2.8,0,5,2.2,5,5S254.2,217.6,251.4,217.6L251.4,217.6z"/>
	<path class="st9" d="M211.6,217.6h-12c-2.8,0-5-2.2-5-5s2.2-5,5-5h12c2.8,0,5,2.2,5,5S214.3,217.6,211.6,217.6z"/>
	<path class="st9" d="M171.7,217.6h-12c-2.8,0-5-2.2-5-5s2.2-5,5-5h12c2.8,0,5,2.2,5,5S174.5,217.6,171.7,217.6z"/>
	<path class="st9" d="M131.8,217.6h-12c-2.8,0-5-2.2-5-5s2.2-5,5-5h12c2.8,0,5,2.2,5,5S134.6,217.6,131.8,217.6z"/>
	<path class="st9" d="M371.9,343.2c-2.8,0-5-2.2-5-5v-12c0-2.8,2.2-5,5-5s5,2.2,5,5v12C376.9,341,374.6,343.2,371.9,343.2z"/>
	<path class="st9" d="M371.9,303.4c-2.8,0-5-2.2-5-5v-12c0-2.8,2.2-5,5-5s5,2.2,5,5v12C376.9,301.1,374.6,303.4,371.9,303.4z"/>
	<path class="st9" d="M371.9,263.5c-2.8,0-5-2.2-5-5v-12c0-2.8,2.2-5,5-5s5,2.2,5,5v12C376.9,261.2,374.6,263.5,371.9,263.5z"/>
	<path class="st9" d="M371,370.3h-12c-2.8,0-5-2.2-5-5s2.2-5,5-5h12c2.8,0,5,2.2,5,5S373.8,370.3,371,370.3z"/>
	<path class="st9" d="M331.2,370.3h-12c-2.8,0-5-2.2-5-5s2.2-5,5-5h12c2.8,0,5,2.2,5,5S333.9,370.3,331.2,370.3z"/>
	<path class="st9" d="M291.3,370.3h-12c-2.8,0-5-2.2-5-5s2.2-5,5-5h12c2.8,0,5,2.2,5,5S294.1,370.3,291.3,370.3z"/>
	<path class="st9" d="M251.4,370.3h-12c-2.8,0-5-2.2-5-5s2.2-5,5-5h12c2.8,0,5,2.2,5,5S254.2,370.3,251.4,370.3L251.4,370.3z"/>
	<path class="st9" d="M211.6,370.3h-12c-2.8,0-5-2.2-5-5s2.2-5,5-5h12c2.8,0,5,2.2,5,5S214.3,370.3,211.6,370.3z"/>
	<path class="st9" d="M171.7,370.3h-12c-2.8,0-5-2.2-5-5s2.2-5,5-5h12c2.8,0,5,2.2,5,5S174.5,370.3,171.7,370.3z"/>
	<path class="st9" d="M131.8,370.3h-12c-2.8,0-5-2.2-5-5s2.2-5,5-5h12c2.8,0,5,2.2,5,5S134.6,370.3,131.8,370.3z"/>
</g>
<circle class="st10" cx="383.1" cy="390.8" r="73.1"/>
<path class="st11" d="M448.9,269c8.3,0,15-6.7,15-15V72.3c0-8.3-6.7-15-15-15H100.7c-8.3,0-15,6.7-15,15V105
	c-20.8,0.6-37.6,17.7-37.6,38.7c0,0,0,0,0,0.1v220c0,21.4,17.4,38.8,38.8,38.8H276c2.8,0,5-2.2,5-5s-2.2-5-5-5H86.9
	c-15.9,0-28.8-12.9-28.8-28.8v-194c7.1,7.9,17.4,12.8,28.8,12.8h305.4c2.8,0,5,2.2,5,5V230c0,2.8,2.2,5,5,5s5-2.2,5-5v-42.5
	c0-8.3-6.7-15-15-15h-4.7v-24.4c0-2.8-2.2-5-5-5h-5.4c-2.8,0-5,2.2-5,5s2.2,5,5,5h0.4v19.4h-200v-24.4c0-2.8-2.2-5-5-5h-5.4
	c-2.8,0-5,2.2-5,5s2.2,5,5,5h0.4v19.4H95.7V72.3c0-2.8,2.2-5,5-5h348.2c2.8,0,5,2.2,5,5V254c0,2.8-2.2,5-5,5h-46.6c-2.8,0-5,2.2-5,5
	v50c-4.6-0.8-9.3-1.3-14.2-1.3c-43.1,0-78.1,35-78.1,78.1s35,78.1,78.1,78.1c43.1,0,78.1-35,78.1-78.1c0-34.6-22.7-64.1-54-74.3V269
	H448.9z M58.1,143.8C58.1,143.7,58.1,143.7,58.1,143.8c0-15.5,12.3-28.2,27.6-28.8v57.5C70.4,171.9,58.1,159.2,58.1,143.8
	L58.1,143.8z M451.2,390.8c0,37.6-30.6,68.1-68.1,68.1S315,428.4,315,390.8s30.6-68.1,68.1-68.1S451.2,353.2,451.2,390.8
	L451.2,390.8z"/>
<circle class="st4" cx="383.1" cy="390.8" r="54"/>
<path class="st12" d="M154.7,43.5c-1.3,0-2.6-0.5-3.5-1.5c-2-2-2-5.1,0-7.1l10-10c2-2,5.1-2,7.1,0c2,2,2,5.1,0,7.1l-10,10
	C157.3,43,156,43.5,154.7,43.5z"/>
<path class="st12" d="M446.2,308.4c-1.3,0-2.6-0.5-3.5-1.5c-2-2-2-5.1,0-7.1l10-10c2-2,5.1-2,7.1,0c2,2,2,5.1,0,7.1l-10,10
	C448.8,307.9,447.5,308.4,446.2,308.4z"/>
<path class="st10" d="M155.7,449.9c-1.3,0-2.6-0.5-3.5-1.5c-2-2-2-5.1,0-7.1l10-10c2-2,5.1-2,7.1,0c2,2,2,5.1,0,7.1l-10,10
	C158.3,449.4,157,449.9,155.7,449.9z"/>
<path class="st13" d="M292.7,444.2c-1.3,0-2.6-0.5-3.5-1.5l-6.5-6.5l-6.5,6.5c-2,2-5.1,2-7.1,0c-2-2-2-5.1,0-7.1l10-10
	c2-2,5.1-2,7.1,0l10,10c2,2,2,5.1,0,7.1C295.3,443.7,294,444.2,292.7,444.2z"/>
<path class="st10" d="M401.1,43.5c-1.3,0-2.6-0.5-3.5-1.5l-6.5-6.5l-6.5,6.5c-2,2-5.1,2-7.1,0c-2-2-2-5.1,0-7.1l10-10
	c2-2,5.1-2,7.1,0l10,10c2,2,2,5.1,0,7.1C403.7,43,402.4,43.5,401.1,43.5z"/>
<g>
	<g>
		<path class="st7" d="M409.1,418.2c-15.4,0-30.9,0-46.3,0c1.7,1.7,3.3,3.3,5,5c0-13.4,0-26.9,0-40.3c-1.7,1.7-3.3,3.3-5,5
			c15.4,0,30.9,0,46.3,0c-1.7-1.7-3.3-3.3-5-5c0,13.4,0,26.9,0,40.3c0,6.4,10,6.4,10,0c0-13.4,0-26.9,0-40.3c0-2.7-2.3-5-5-5
			c-15.4,0-30.9,0-46.3,0c-2.7,0-5,2.3-5,5c0,13.4,0,26.9,0,40.3c0,2.7,2.3,5,5,5c15.4,0,30.9,0,46.3,0
			C415.6,428.2,415.6,418.2,409.1,418.2z"/>
	</g>
</g>
<path class="st14" d="M-113,224.5"/>
<g>
	<g>
		<path class="st7" d="M368.2,377c0.3-9.6,7.6-19,17.8-19c10.2,0,17.5,9.4,17.8,19c0.1,3.2,5.1,3.2,5,0c-0.4-12.3-9.8-24-22.8-24
			c-13,0-22.4,11.7-22.8,24C363,380.2,368,380.2,368.2,377L368.2,377z"/>
	</g>
</g>
<circle class="st7" cx="386" cy="399.4" r="6.2"/>
<path class="st7" d="M385.8,412.9L385.8,412.9c-2.1,0-3.8-1.7-3.8-3.8v-3.9c0-2.1,1.7-3.8,3.8-3.8h0c2.1,0,3.8,1.7,3.8,3.8v3.9
	C389.6,411.2,387.9,412.9,385.8,412.9z"/>
</svg>
