<svg id="Capa_1" enable-background="new 0 0 512 512" height="512" viewBox="0 0 512 512" width="512" xmlns="http://www.w3.org/2000/svg" xmlns:xlink="http://www.w3.org/1999/xlink"><linearGradient id="SVGID_1_" gradientUnits="userSpaceOnUse" x1="377.838" x2="220.346" y1="509.175" y2="150.693"><stop offset=".0112" stop-color="#dcfdee"/><stop offset=".3814" stop-color="#e8f1ee"/><stop offset="1" stop-color="#ffdbed"/></linearGradient><path d="m471.476 127.57c-65.417-50.293-128.867-9.306-199.64-23.797-71.285-14.597-99.685-63.201-180.876-40.766-71.922 19.873-115.562 99.551-76.024 166.258 11.267 19.009 30.461 33.35 38.305 54.619 12.653 34.311-6.607 60.653-2.85 94.372 15.612 140.102 229.574 85.834 308.303 42.245 123.47-68.36 206.998-220.497 112.782-292.931z" fill="url(#SVGID_1_)"/><path d="m436.065 244.576c-16.402-17.59-35.133-32.975-55.685-45.704v-62.998c0-11.04-8.96-20-20-20h-244.76c-11.04 0-20 8.96-20 20v63.002c-20.552 12.728-39.283 28.111-55.684 45.7-7.194 7.715-7.193 19.66.002 27.374 3.281 3.517 6.661 6.94 10.123 10.279-1.57 1.766-2.532 4.085-2.532 6.634v77.944c0 5.523 4.477 10 10 10h38.091v3.827c0 11.04 8.96 20 20 20h156.689c5.773 20.364 24.489 35.288 46.703 35.288 22.505 0 41.427-15.315 46.93-36.089 8.334-2.413 14.439-10.091 14.439-19.199v-62.994c20.548-12.724 39.278-28.105 55.682-45.691 7.195-7.713 7.196-19.658.002-27.373z" fill="#2626bc" opacity=".11"/><path d="m398.38 117.874v244.76c0 11.04-8.96 20-20 20h-244.76c-11.04 0-20-8.96-20-20v-244.76c0-11.04 8.96-20 20-20h244.76c11.04 0 20 8.96 20 20z" fill="#97ffd2"/><path d="m163.47 284.984v77.94c0 5.52-4.47 10-10 10h-37c-1.81-3.01-2.85-6.53-2.85-10.29v-87.65h39.85c5.53 0 10 4.47 10 10z" fill="#02ffb3"/><path d="m398.38 194.974v118.8c-41.37 25.62-90.14 40.4-142.37 40.4-52.24 0-101.03-14.78-142.39-40.4v-118.8c41.37-25.62 90.15-40.4 142.39-40.4s101.01 14.78 142.37 40.4z" fill="#02ffb3"/><path d="m454.065 226.576c7.194 7.715 7.193 19.66-.003 27.374-49.428 52.989-119.871 86.106-198.052 86.106-78.2 0-148.644-33.117-198.072-86.106-7.196-7.714-7.197-19.659-.002-27.374 49.414-52.99 119.875-86.124 198.074-86.124s148.643 33.133 198.055 86.124z" fill="#d2deff"/><path d="m404.76 184.934c-9.48 8.28-21.52 13.68-34.73 14.81-14.47 1.23-27.98-2.6-38.99-9.9l-19.46 8.57c-4.02 1.77-8.12-2.32-6.35-6.34l8.57-19.47c-5.41-8.15-8.91-17.66-9.86-27.92 36.71 6.55 70.84 20.5 100.82 40.25z" fill="#b7c5ff"/><circle cx="256" cy="240.254" fill="#8399fe" r="58.629"/><path d="m361.247 417.922c26.815 0 48.552-21.737 48.552-48.552s-21.737-48.552-48.552-48.552h-24.235v97.104z" fill="#4369fd"/><circle cx="337.011" cy="369.37" fill="#02ffb3" r="48.552"/><path d="m425.603 128.846c2.362-36.874-28.045-67.282-64.92-64.92-29.858 1.913-54.253 25.765-56.784 55.578-1.228 14.461 2.604 27.972 9.902 38.986l-8.57 19.463c-1.77 4.019 2.326 8.115 6.345 6.345l19.463-8.57c11.014 7.298 24.525 11.13 38.986 9.902 29.813-2.531 53.666-26.926 55.578-56.784z" fill="#ffa8cf"/><circle cx="341.371" cy="124.11" fill="#fff" r="6.857"/><circle cx="365.795" cy="124.11" fill="#fff" r="6.857"/><circle cx="390.219" cy="124.11" fill="#fff" r="6.857"/><path d="m153.473 358.806h-77.944c-5.523 0-10-4.477-10-10v-77.944c0-5.523 4.477-10 10-10h77.944c5.523 0 10 4.477 10 10v77.944c0 5.523-4.477 10-10 10z" fill="#ff7eb8"/><path d="m163.469 270.865v77.94c0 5.52-4.47 10-10 10h-16.69c5.53 0 10-4.48 10-10v-77.94c0-5.53-4.47-10-10-10h16.69c5.53 0 10 4.47 10 10z" fill="#ffa8cf"/><g fill="#fff"><path d="m161.871 225.792c-1.28 0-2.559-.488-3.536-1.464-1.953-1.953-1.953-5.119 0-7.071l17.667-17.667c1.953-1.952 5.118-1.952 7.071 0 1.953 1.953 1.953 5.119 0 7.071l-17.667 17.667c-.976.975-2.255 1.464-3.535 1.464z"/><path d="m135.553 225.792c-1.28 0-2.559-.488-3.536-1.464-1.953-1.953-1.953-5.119 0-7.071l17.667-17.667c1.953-1.952 5.118-1.952 7.071 0 1.953 1.953 1.953 5.119 0 7.071l-17.667 17.667c-.976.975-2.255 1.464-3.535 1.464z"/><path d="m358.78 282.383c-1.28 0-2.559-.488-3.536-1.464-1.953-1.953-1.953-5.119 0-7.071l17.667-17.667c1.953-1.952 5.118-1.952 7.071 0 1.953 1.953 1.953 5.119 0 7.071l-17.667 17.667c-.976.976-2.255 1.464-3.535 1.464z"/><path d="m332.461 282.383c-1.28 0-2.559-.488-3.536-1.464-1.953-1.953-1.953-5.119 0-7.071l17.667-17.667c1.953-1.952 5.118-1.952 7.071 0 1.953 1.953 1.953 5.119 0 7.071l-17.667 17.667c-.976.976-2.255 1.464-3.535 1.464z"/></g><circle cx="256" cy="240.254" fill="#9fb0fe" r="46.198"/><path d="m302.2 240.254c0 25.51-20.69 46.2-46.2 46.2-9.05 0-17.49-2.6-24.61-7.1 3.44.82 7.03 1.25 10.72 1.25 25.51 0 46.2-20.68 46.2-46.2 0-16.47-8.63-30.93-21.61-39.11 20.35 4.84 35.5 23.13 35.5 44.96z" fill="#b7c5ff"/><circle cx="251.183" cy="242.133" fill="#6583fe" r="14.201"/><circle cx="266.472" cy="232.596" fill="#d2deff" r="10.65"/><path d="m82.698 106.68c-3.739 0-7.479-1.423-10.326-4.27-5.693-5.693-5.693-14.958 0-20.651 5.694-5.695 14.958-5.693 20.651 0 2.758 2.758 4.277 6.426 4.277 10.326s-1.519 7.568-4.278 10.326c-2.845 2.845-6.585 4.269-10.324 4.269zm0-19.197c-1.179 0-2.357.449-3.254 1.346-1.794 1.794-1.794 4.715 0 6.509 1.794 1.795 4.715 1.795 6.509 0 .869-.87 1.348-2.025 1.348-3.254s-.479-2.385-1.349-3.255c-.897-.897-2.076-1.346-3.254-1.346z" fill="#8399fe"/><path d="m438.401 336.137c-3.739 0-7.479-1.423-10.326-4.27-2.758-2.758-4.277-6.425-4.277-10.326 0-3.9 1.519-7.568 4.278-10.326 5.693-5.694 14.957-5.694 20.651 0 2.758 2.758 4.277 6.425 4.277 10.326s-1.519 7.568-4.278 10.326c-2.846 2.846-6.585 4.27-10.325 4.27zm0-19.197c-1.179 0-2.357.449-3.254 1.346-.87.87-1.349 2.025-1.349 3.254s.479 2.385 1.348 3.255c1.795 1.795 4.715 1.795 6.509 0 .869-.87 1.348-2.025 1.348-3.255 0-1.229-.479-2.385-1.348-3.254-.896-.897-2.075-1.346-3.254-1.346z" fill="#01eca5"/><path d="m114.619 51.915h-3.25v-3.25c0-2.761-2.239-5-5-5s-5 2.239-5 5v3.25h-3.25c-2.761 0-5 2.239-5 5s2.239 5 5 5h3.25v3.25c0 2.761 2.239 5 5 5s5-2.239 5-5v-3.25h3.25c2.761 0 5-2.239 5-5s-2.239-5-5-5z" fill="#ff7eb8"/><path d="m105.948 393.876h-3.25v-3.25c0-2.761-2.239-5-5-5s-5 2.239-5 5v3.25h-3.25c-2.761 0-5 2.239-5 5s2.239 5 5 5h3.25v3.25c0 2.761 2.239 5 5 5s5-2.239 5-5v-3.25h3.25c2.761 0 5-2.239 5-5s-2.239-5-5-5z" fill="#ff7eb8"/><path d="m146.795 417.75h-3.25v-3.25c0-2.761-2.239-5-5-5s-5 2.239-5 5v3.25h-3.25c-2.761 0-5 2.239-5 5s2.239 5 5 5h3.25v3.25c0 2.761 2.239 5 5 5s5-2.239 5-5v-3.25h3.25c2.761 0 5-2.239 5-5s-2.239-5-5-5z" fill="#01eca5"/><path d="m348.78 385.159h-19.008c.538-1.411.818-2.923.818-4.478v-6.311h6.421c2.761 0 5-2.239 5-5s-2.239-5-5-5h-6.421v-6.355c0-2.948 2.398-5.347 5.347-5.347s5.347 2.399 5.347 5.347c0 2.761 2.239 5 5 5s5-2.239 5-5c0-8.462-6.885-15.347-15.347-15.347s-15.347 6.885-15.347 15.347v6.355h-.961c-2.761 0-5 2.239-5 5s2.239 5 5 5h.961v6.311c0 .684-.267 1.327-.75 1.811-2.13 2.129-2.762 5.303-1.609 8.086s3.844 4.581 6.856 4.581h23.693c2.761 0 5-2.239 5-5s-2.239-5-5-5z" fill="#fff"/><path d="m457.722 223.166c-16.104-17.27-34.323-32.384-54.213-44.997 15.391-11.262 25.802-29.001 27.084-49.003 1.218-19.01-5.781-37.61-19.201-51.03-13.419-13.42-32.015-20.416-51.028-19.2-32.294 2.069-58.71 27.925-61.446 60.144-.576 6.78-.132 13.457 1.272 19.894-14.534-2.337-29.367-3.523-44.179-3.523-38.933 0-76.568 7.947-111.861 23.621-8.771 3.895-17.282 8.223-25.528 12.958v-54.155c0-8.271 6.729-15 15-15h148.388c2.761 0 5-2.239 5-5s-2.239-5-5-5h-148.388c-13.785 0-25 11.215-25 25v60.19c-19.875 12.568-38.066 27.646-54.343 45.1-8.941 9.588-8.939 24.608.003 34.195 2.416 2.59 4.917 5.136 7.441 7.642-.768 1.801-1.194 3.782-1.194 5.86v30.341c0 2.761 2.239 5 5 5s5-2.239 5-5v-30.341c0-2.757 2.243-5 5-5h77.943c2.757 0 5 2.243 5 5v77.944c0 2.757-2.243 5-5 5h-77.943c-2.757 0-5-2.243-5-5v-19.503c0-2.761-2.239-5-5-5s-5 2.239-5 5v19.503c0 8.271 6.729 15 15 15h33.122c.616 13.242 11.579 23.826 24.97 23.826h153.049c7.483 20.563 27.224 35.289 50.341 35.289h24.235c29.529 0 53.552-24.023 53.552-53.552 0-12.441-4.276-23.895-11.42-32.997v-34.014c19.911-12.626 38.282-27.783 54.34-44.998 8.943-9.586 8.944-24.606.004-34.194zm-148.841-103.24c2.32-27.326 24.728-49.255 52.122-51.01 16.138-1.032 31.93 4.904 43.318 16.292s17.326 27.177 16.292 43.319c-1.755 27.394-23.685 49.801-51.011 52.122-12.813 1.086-25.188-2.055-35.801-9.088-.832-.551-1.794-.832-2.762-.832-.684 0-1.37.14-2.015.424l-19.024 8.375 8.377-19.023c.686-1.558.532-3.358-.408-4.777-7.032-10.613-10.175-22.993-9.088-35.802zm-175.259 257.706c-7.875 0-14.338-6.103-14.94-13.826h34.792c8.271 0 15-6.729 15-15v-17.934c28.138 9.408 57.56 14.183 87.538 14.183 11.522 0 23.074-.723 34.469-2.141-4.458 7.81-7.02 16.836-7.02 26.455 0 2.81.22 5.569.639 8.263zm159.837-8.262c0-24.015 19.537-43.552 43.552-43.552s43.552 19.538 43.552 43.552-19.538 43.552-43.552 43.552-43.552-19.538-43.552-43.552zm75.669 42.823c13.007-9.779 21.436-25.335 21.436-42.824s-8.429-33.045-21.436-42.824c20.264 3.721 35.671 21.501 35.671 42.824s-15.408 39.104-35.671 42.824zm24.25-85.636c-5.249-3.95-11.249-6.945-17.738-8.759 6.014-2.907 11.938-6.02 17.738-9.364zm57.028-76.018c-26.306 28.201-59.014 50.729-94.587 65.149-.088.036-.161.09-.245.129h-18.563c-14.795 0-28.206 6.032-37.907 15.764-14.145 2.305-28.643 3.475-43.094 3.475-30.025 0-59.467-4.969-87.538-14.752v-49.442c0-8.271-6.729-15-15-15h-77.943c-2.545 0-4.941.641-7.043 1.764-2.337-2.327-4.653-4.688-6.892-7.088-5.375-5.763-5.376-14.791-.002-20.554 24.617-26.398 53.758-47.182 86.616-61.774 34.007-15.103 70.277-22.76 107.802-22.76 15.955 0 31.929 1.431 47.499 4.238 1.294 3.168 2.842 6.249 4.642 9.223l-7.497 17.025c-1.644 3.733-.842 8.01 2.042 10.894s7.16 3.687 10.895 2.042l17.024-7.497c10.327 6.25 21.947 9.481 34.024 9.481 1.925 0 3.863-.082 5.808-.248 8.363-.71 16.291-3.028 23.492-6.617 20.816 12.662 39.814 28.132 56.468 45.991 5.375 5.767 5.374 14.795-.001 20.557z" fill="#2626bc"/><path d="m97.336 305.681c-7.174 0-13.011-5.836-13.011-13.011s5.837-13.011 13.011-13.011 13.011 5.837 13.011 13.011-5.836 13.011-13.011 13.011zm0-16.022c-1.661 0-3.011 1.351-3.011 3.011s1.351 3.011 3.011 3.011 3.011-1.351 3.011-3.011-1.35-3.011-3.011-3.011z" fill="#ffdbed"/><path d="m131.666 340.01c-7.174 0-13.011-5.836-13.011-13.011s5.836-13.011 13.011-13.011 13.011 5.837 13.011 13.011-5.837 13.011-13.011 13.011zm0-16.022c-1.66 0-3.011 1.351-3.011 3.011s1.351 3.011 3.011 3.011c1.661 0 3.011-1.351 3.011-3.011s-1.351-3.011-3.011-3.011z" fill="#ffdbed"/><path d="m100.308 329.028c-1.28 0-2.559-.488-3.536-1.464-1.953-1.953-1.953-5.119 0-7.071l28.387-28.386c1.954-1.952 5.119-1.951 7.071 0 1.953 1.953 1.953 5.119 0 7.071l-28.387 28.386c-.976.976-2.256 1.464-3.535 1.464z" fill="#ffdbed"/></svg>