<svg id="Capa_1" enable-background="new 0 0 512 512" height="512" viewBox="0 0 512 512" width="512" xmlns="http://www.w3.org/2000/svg" xmlns:xlink="http://www.w3.org/1999/xlink"><linearGradient id="SVGID_1_" gradientUnits="userSpaceOnUse" x1="404.572" x2="241.905" y1="29.898" y2="377.232"><stop offset="0" stop-color="#c7d3ff"/><stop offset=".593" stop-color="#e7d8f5"/><stop offset=".997" stop-color="#ffdbed"/></linearGradient><path d="m317.95.425c-95.818 8.652-105.09 192.428-146.416 286.587-20.478 46.658-68.772 94.794-60.258 149.782 9.605 62.035 72.897 80.075 121.683 74.14 120.723-14.685 172.899-141.053 180.797-260.801 4.869-73.829 20.301-260.192-95.806-249.708z" fill="url(#SVGID_1_)"/><path d="m436.075 139.328h-261.456v-24.709c0-5.523-4.477-10-10-10h-77.944c-5.523 0-10 4.477-10 10v24.709h-26.24c-11.6 0-21 9.4-21 21v234.42c0 11.6 9.4 21 21 21h260.171v21.807c0 5.523 4.477 10 10 10h77.944c5.523 0 10-4.477 10-10v-21.807h27.526c11.6 0 21-9.4 21-21v-234.42c-.001-11.6-9.401-21-21.001-21z" fill="#2626bc" opacity=".11"/><path d="m477.567 138.79v234.42c0 11.6-9.4 21-21 21h-385.64c-11.6 0-21-9.4-21-21v-234.42c0-11.6 9.4-21 21-21h385.64c11.6 0 21 9.4 21 21z" fill="#9fb0fe"/><path d="m402.235 297.032h75.333v-37.381h-75.333c-2.761 0-5 2.239-5 5v27.381c0 2.762 2.238 5 5 5z" fill="#d2deff"/><path d="m49.927 170h427.64v67.55h-427.64z" fill="#4369fd"/><path d="m195.107 170v18.31c0 5.52-4.47 10-10 10h-77.94c-5.52 0-10-4.48-10-10v-18.31z" fill="#2d58e0"/><path d="m185.112 181.025h-77.944c-5.523 0-10-4.477-10-10v-77.944c0-5.523 4.477-10 10-10h77.944c5.523 0 10 4.477 10 10v77.944c0 5.523-4.478 10-10 10z" fill="#02ffb3"/><path d="m195.108 93.083v77.94c0 5.52-4.47 10-10 10h-16.69c5.53 0 10-4.48 10-10v-77.94c0-5.53-4.47-10-10-10h16.69c5.53 0 10 4.47 10 10z" fill="#97ffd2"/><path d="m419.042 426.017h-77.944c-5.523 0-10-4.477-10-10v-77.944c0-5.523 4.477-10 10-10h77.944c5.523 0 10 4.477 10 10v77.944c0 5.523-4.477 10-10 10z" fill="#ff7eb8"/><path d="m429.038 338.076v77.94c0 5.52-4.47 10-10 10h-16.69c5.53 0 10-4.48 10-10v-77.94c0-5.53-4.47-10-10-10h16.69c5.53 0 10 4.47 10 10z" fill="#ffa8cf"/><path d="m99.578 324.698h-16.52c-2.762 0-5-2.239-5-5s2.238-5 5-5h16.52c2.762 0 5 2.239 5 5s-2.239 5-5 5z" fill="#ffc4df"/><path d="m220.342 350.698h-137.284c-2.762 0-5-2.239-5-5s2.238-5 5-5h137.284c2.762 0 5 2.239 5 5s-2.238 5-5 5z" fill="#02ffb3"/><path d="m220.342 369.778h-137.284c-2.762 0-5-2.239-5-5s2.238-5 5-5h137.284c2.762 0 5 2.239 5 5s-2.238 5-5 5z" fill="#02ffb3"/><circle cx="332.649" cy="203.777" fill="#b7c5ff" r="5.59"/><circle cx="349.559" cy="203.777" fill="#b7c5ff" r="5.59"/><circle cx="366.469" cy="203.777" fill="#b7c5ff" r="5.59"/><path d="m152.688 127.053h-1.548v-10.281h6.511c2.761 0 5-2.239 5-5s-2.239-5-5-5h-6.511v-2.551c0-2.761-2.239-5-5-5s-5 2.239-5 5v2.551h-1.548c-8.348 0-15.14 6.792-15.14 15.141 0 8.348 6.792 15.14 15.14 15.14h1.548v10.281h-6.511c-2.761 0-5 2.239-5 5s2.239 5 5 5h6.511v2.551c0 2.761 2.239 5 5 5s5-2.239 5-5v-2.551h1.548c8.349 0 15.141-6.792 15.141-15.141 0-8.348-6.792-15.14-15.141-15.14zm-13.097 0c-2.834 0-5.14-2.306-5.14-5.14s2.306-5.141 5.14-5.141h1.548v10.281zm13.097 20.28h-1.548v-10.281h1.548c2.834 0 5.141 2.306 5.141 5.14s-2.307 5.141-5.141 5.141z" fill="#fff"/><path d="m456.565 112.787h-256.453v-19.706c0-8.271-6.729-15-15-15h-77.944c-8.271 0-15 6.729-15 15v19.707h-21.239c-14.336 0-26 11.664-26 26v184.162c0 2.761 2.239 5 5 5s5-2.239 5-5v-80.396h417.637v130.659c0 8.822-7.178 16-16 16h-22.523v-51.14c0-8.271-6.729-15-15-15h-77.944c-8.271 0-15 6.729-15 15v51.14h-255.17c-8.822 0-16-7.178-16-16v-22.163c0-2.761-2.239-5-5-5s-5 2.239-5 5v22.164c0 14.336 11.664 26 26 26h255.169v16.804c0 8.271 6.729 15 15 15h77.944c8.271 0 15-6.729 15-15v-16.804h22.523c14.337 0 26-11.664 26-26v-234.427c0-14.336-11.663-26-26-26zm-32.523 303.23c0 2.757-2.243 5-5 5h-77.944c-2.757 0-5-2.243-5-5v-77.944c0-2.757 2.243-5 5-5h77.944c2.757 0 5 2.243 5 5zm-321.874-322.936c0-2.757 2.243-5 5-5h77.944c2.757 0 5 2.243 5 5v77.944c0 2.757-2.243 5-5 5h-77.944c-2.757 0-5-2.243-5-5zm-31.239 29.706h21.239v42.213h-37.239v-26.213c0-8.822 7.177-16 16-16zm-16 109.768v-57.555h37.791c1.749 6.345 7.555 11.025 14.448 11.025h77.944c8.271 0 15-6.729 15-15v-48.238h256.454c8.822 0 16 7.178 16 16v26.213h-247.224c-2.761 0-5 2.239-5 5s2.239 5 5 5h247.223v57.555z" fill="#2626bc"/><path d="m362.905 372.891c-7.174 0-13.011-5.836-13.011-13.011s5.837-13.011 13.011-13.011 13.011 5.836 13.011 13.011-5.837 13.011-13.011 13.011zm0-16.021c-1.66 0-3.011 1.351-3.011 3.011s1.351 3.011 3.011 3.011 3.011-1.351 3.011-3.011-1.351-3.011-3.011-3.011z" fill="#ffdbed"/><path d="m397.234 407.221c-7.174 0-13.011-5.836-13.011-13.011s5.837-13.011 13.011-13.011 13.011 5.836 13.011 13.011-5.837 13.011-13.011 13.011zm0-16.022c-1.66 0-3.011 1.351-3.011 3.011s1.351 3.011 3.011 3.011 3.011-1.351 3.011-3.011-1.351-3.011-3.011-3.011z" fill="#ffdbed"/><path d="m365.877 396.238c-1.279 0-2.56-.488-3.535-1.464-1.953-1.953-1.953-5.119 0-7.071l28.386-28.386c1.951-1.952 5.119-1.952 7.07 0 1.953 1.953 1.953 5.119 0 7.071l-28.386 28.386c-.976.976-2.256 1.464-3.535 1.464z" fill="#ffdbed"/><g fill="#d2deff"><path d="m95.49 298.681h-5.332c-6.508 0-11.803-5.295-11.803-11.803v-16.457c0-6.508 5.295-11.803 11.803-11.803h5.332c6.508 0 11.803 5.295 11.803 11.803v16.457c0 6.508-5.295 11.803-11.803 11.803zm-5.331-30.062c-.994 0-1.803.809-1.803 1.803v16.457c0 .994.809 1.803 1.803 1.803h5.332c.994 0 1.803-.809 1.803-1.803v-16.457c0-.994-.809-1.803-1.803-1.803z"/><path d="m132.592 281.555h-14.025c-2.761 0-5-2.239-5-5v-12.936c0-2.761 2.239-5 5-5s5 2.239 5 5v7.936h9.025c2.761 0 5 2.239 5 5s-2.239 5-5 5z"/><path d="m134.189 298.065c-2.761 0-5-2.239-5-5v-29.446c0-2.761 2.239-5 5-5s5 2.239 5 5v29.446c0 2.761-2.238 5-5 5z"/><path d="m163.834 298.681h-5.332c-6.508 0-11.803-5.295-11.803-11.803v-16.457c0-6.508 5.295-11.803 11.803-11.803h5.332c6.508 0 11.802 5.295 11.802 11.803v16.457c.001 6.508-5.294 11.803-11.802 11.803zm-5.331-30.062c-.994 0-1.803.809-1.803 1.803v16.457c0 .994.809 1.803 1.803 1.803h5.332c.994 0 1.802-.809 1.802-1.803v-16.457c0-.994-.809-1.803-1.802-1.803z"/><path d="m200.935 281.555h-14.025c-2.761 0-5-2.239-5-5v-12.936c0-2.761 2.239-5 5-5s5 2.239 5 5v7.936h9.025c2.761 0 5 2.239 5 5s-2.238 5-5 5z"/><path d="m202.533 298.065c-2.761 0-5-2.239-5-5v-29.446c0-2.761 2.239-5 5-5s5 2.239 5 5v29.446c0 2.761-2.239 5-5 5z"/><path d="m260.279 281.555h-14.024c-2.761 0-5-2.239-5-5v-12.936c0-2.761 2.239-5 5-5s5 2.239 5 5v7.936h9.024c2.762 0 5 2.239 5 5s-2.238 5-5 5z"/><path d="m261.878 298.065c-2.762 0-5-2.239-5-5v-29.446c0-2.761 2.238-5 5-5s5 2.239 5 5v29.446c0 2.761-2.238 5-5 5z"/><path d="m293.387 281.555h-14.024c-2.762 0-5-2.239-5-5v-12.936c0-2.761 2.238-5 5-5s5 2.239 5 5v7.936h9.024c2.762 0 5 2.239 5 5s-2.239 5-5 5z"/><path d="m294.984 298.065c-2.762 0-5-2.239-5-5v-29.446c0-2.761 2.238-5 5-5s5 2.239 5 5v29.446c0 2.761-2.238 5-5 5z"/><path d="m326.494 281.555h-14.025c-2.762 0-5-2.239-5-5v-12.936c0-2.761 2.238-5 5-5s5 2.239 5 5v7.936h9.025c2.762 0 5 2.239 5 5s-2.238 5-5 5z"/><path d="m328.092 298.065c-2.762 0-5-2.239-5-5v-29.446c0-2.761 2.238-5 5-5s5 2.239 5 5v29.446c0 2.761-2.239 5-5 5z"/><path d="m359.602 281.555h-14.025c-2.762 0-5-2.239-5-5v-12.936c0-2.761 2.238-5 5-5s5 2.239 5 5v7.936h9.025c2.762 0 5 2.239 5 5s-2.239 5-5 5z"/><path d="m361.199 298.065c-2.762 0-5-2.239-5-5v-29.446c0-2.761 2.238-5 5-5s5 2.239 5 5v29.446c0 2.761-2.238 5-5 5z"/></g><path d="m228.241 53h-3.25v-3.25c0-2.761-2.239-5-5-5s-5 2.239-5 5v3.25h-3.25c-2.761 0-5 2.239-5 5s2.239 5 5 5h3.25v3.25c0 2.761 2.239 5 5 5s5-2.239 5-5v-3.25h3.25c2.761 0 5-2.239 5-5s-2.239-5-5-5z" fill="#01eca5"/><path d="m455.039 449h-3.25v-3.25c0-2.761-2.238-5-5-5s-5 2.239-5 5v3.25h-3.25c-2.762 0-5 2.239-5 5s2.238 5 5 5h3.25v3.25c0 2.761 2.238 5 5 5s5-2.239 5-5v-3.25h3.25c2.762 0 5-2.239 5-5s-2.238-5-5-5z" fill="#01eca5"/><path d="m212.869 438.74h-3.25v-3.25c0-2.761-2.239-5-5-5s-5 2.239-5 5v3.25h-3.25c-2.761 0-5 2.239-5 5s2.239 5 5 5h3.25v3.25c0 2.761 2.239 5 5 5s5-2.239 5-5v-3.25h3.25c2.761 0 5-2.239 5-5s-2.239-5-5-5z" fill="#ff7eb8"/><path d="m247.96 477.825c-1.433 0-2.889-.213-4.327-.66-7.688-2.391-11.999-10.592-9.608-18.28 1.158-3.725 3.697-6.775 7.15-8.59 3.453-1.814 7.406-2.177 11.13-1.018 3.724 1.158 6.775 3.697 8.59 7.15 1.814 3.453 2.176 7.406 1.018 11.131-1.944 6.25-7.727 10.267-13.953 10.267zm.003-19.209c-.736 0-1.466.179-2.136.531-1.088.572-1.889 1.534-2.254 2.708-.753 2.423.605 5.008 3.029 5.762 2.422.753 5.007-.605 5.762-3.029.365-1.173.251-2.419-.321-3.507s-1.534-1.889-2.708-2.254c-.45-.141-.912-.211-1.372-.211z" fill="#ff7eb8"/><path d="m446.78 97.688c-1.433 0-2.889-.213-4.327-.66-7.688-2.391-11.998-10.591-9.608-18.28 2.393-7.689 10.588-11.999 18.281-9.608 7.688 2.391 11.998 10.591 9.607 18.28-1.944 6.25-7.727 10.268-13.953 10.268zm.012-19.208c-1.963 0-3.785 1.266-4.398 3.237-.753 2.423.605 5.008 3.029 5.762 2.426.755 5.008-.606 5.762-3.029.753-2.424-.605-5.008-3.028-5.762-.454-.141-.914-.208-1.365-.208zm9.167 7.455h.01z" fill="#8399fe"/></svg>