<?xml version="1.0"?>
<svg xmlns="http://www.w3.org/2000/svg" xmlns:xlink="http://www.w3.org/1999/xlink" xmlns:svgjs="http://svgjs.com/svgjs" version="1.1" width="512" height="512" x="0" y="0" viewBox="0 0 311.541 311.541" style="enable-background:new 0 0 512 512" xml:space="preserve" class=""><circle r="155.7705" cx="155.7705" cy="155.7705" fill="#ffffff" shape="circle" transform="matrix(0.93,0,0,0.93,10.903934478759766,10.903934478759766)"/><g transform="matrix(0.9499999999999998,0,0,0.9499999999999998,7.788524627685661,-22.211475086212005)">
<g xmlns="http://www.w3.org/2000/svg">
	<g>
		<path d="M155.771,26.331C69.74,26.331,0,96.071,0,182.102c0,37.488,13.25,71.883,35.314,98.761    c3.404-27.256,30.627-50.308,68.8-61.225c13.946,12.994,31.96,20.878,51.656,20.878c19.233,0,36.894-7.487,50.698-19.936    c38.503,11.871,65.141,36.27,66.017,64.63c24.284-27.472,39.056-63.555,39.056-103.108    C311.541,96.071,241.801,26.331,155.771,26.331z M155.771,222.069c-9.944,0-19.314-2.732-27.634-7.464    c-20.05-11.409-33.855-34.756-33.855-61.711c0-38.143,27.583-69.176,61.489-69.176c33.909,0,61.489,31.033,61.489,69.176    c0,27.369-14.237,51.004-34.786,62.215C174.379,219.523,165.346,222.069,155.771,222.069z" fill="#e63946" data-original="#000000" style="" class=""/>
	</g>
</g>
<g xmlns="http://www.w3.org/2000/svg">
</g>
<g xmlns="http://www.w3.org/2000/svg">
</g>
<g xmlns="http://www.w3.org/2000/svg">
</g>
<g xmlns="http://www.w3.org/2000/svg">
</g>
<g xmlns="http://www.w3.org/2000/svg">
</g>
<g xmlns="http://www.w3.org/2000/svg">
</g>
<g xmlns="http://www.w3.org/2000/svg">
</g>
<g xmlns="http://www.w3.org/2000/svg">
</g>
<g xmlns="http://www.w3.org/2000/svg">
</g>
<g xmlns="http://www.w3.org/2000/svg">
</g>
<g xmlns="http://www.w3.org/2000/svg">
</g>
<g xmlns="http://www.w3.org/2000/svg">
</g>
<g xmlns="http://www.w3.org/2000/svg">
</g>
<g xmlns="http://www.w3.org/2000/svg">
</g>
<g xmlns="http://www.w3.org/2000/svg">
</g>
</g></svg>
