<!--svg style="pointer-events: none" class="wave" width="100%" height="70px" preserveAspectRatio="none"
        xmlns="http://www.w3.org/2000/svg" xmlns:xlink="http://www.w3.org/1999/xlink" viewBox="0 0 1920 75">
        <defs>
          <style>
            .a {
              fill: none;
            }

            .b {
              clip-path: url(#a);
            }

            .c,
            .d {
              fill: #ffffff;
            }

            .d {
              opacity: 0.5;
              isolation: isolate;
            }
          </style>
          <clipPath id="a">
            <rect class="a" width="1920" height="75"></rect>
          </clipPath>
        </defs>
        <title>wave</title>
        <g class="b">
          <path class="c"
            d="M1963,327H-105V65A2647.49,2647.49,0,0,1,431,19c217.7,3.5,239.6,30.8,470,36,297.3,6.7,367.5-36.2,642-28a2511.41,2511.41,0,0,1,420,48">
          </path>
        </g>
        <g class="b">
          <path class="d"
            d="M-127,404H1963V44c-140.1-28-343.3-46.7-566,22-75.5,23.3-118.5,45.9-162,64-48.6,20.2-404.7,128-784,0C355.2,97.7,341.6,78.3,235,50,86.6,10.6-41.8,6.9-127,10">
          </path>
        </g>
        <g class="b">
          <path class="d"
            d="M1979,462-155,446V106C251.8,20.2,576.6,15.9,805,30c167.4,10.3,322.3,32.9,680,56,207,13.4,378,20.3,494,24">
          </path>
        </g>
        <g class="b">
          <path class="d"
            d="M1998,484H-243V100c445.8,26.8,794.2-4.1,1035-39,141-20.4,231.1-40.1,378-45,349.6-11.6,636.7,73.8,828,150">
          </path>
        </g>
      </svg-->
    <svg class="monta" viewBox="0 0 120 28" >
      <defs> 
         <filter id="goo">
           <feGaussianBlur in="SourceGraphic" stdDeviation="1" result="blur" />
           <feColorMatrix in="blur" mode="matrix" values="
                1 0 0 0 0  
                0 1 0 0 0  
                0 0 1 0 0  
                0 0 0 13 -9" result="goo" />
           <xfeBlend in="SourceGraphic" in2="goo" />
         </filter>
          <path id="wave" d="M 0,10 C 30,10 30,15 60,15 90,15 90,10 120,10 150,10 150,15 180,15 210,15 210,10 240,10 v 28 h -240 z" />
       </defs> 
     
        <use id="wave3" class="wave" xlink:href="#wave" x="0" y="-2" ></use> 
        <use id="wave2" class="wave" xlink:href="#wave" x="0" y="0" ></use>
      
      
       <g class="gooeff" filter="url(#goo)">
       <circle class="drop drop1" cx="20" cy="2" r="8.8"  />
       <circle class="drop drop2" cx="25" cy="2.5" r="7.5"  />
       <circle class="drop drop3" cx="16" cy="2.8" r="9.2"  />
       <circle class="drop drop4" cx="18" cy="2" r="8.8"  />
       <circle class="drop drop5" cx="22" cy="2.5" r="7.5"  />
       <circle class="drop drop6" cx="26" cy="2.8" r="9.2"  />
       <circle class="drop drop1" cx="5" cy="4.4" r="8.8"  />
       <circle class="drop drop2" cx="5" cy="4.1" r="7.5"  />
       <circle class="drop drop3" cx="8" cy="3.8" r="9.2"  />
       <circle class="drop drop4" cx="3" cy="4.4" r="8.8"  />
       <circle class="drop drop5" cx="7" cy="4.1" r="7.5"  />
       <circle class="drop drop6" cx="10" cy="4.3" r="9.2"  />
       
       <circle class="drop drop1" cx="1.2" cy="5.4" r="8.8"  />
       <circle class="drop drop2" cx="5.2" cy="5.1" r="7.5"  />
       <circle class="drop drop3" cx="10.2" cy="5.3" r="9.2"  />
         <circle class="drop drop4" cx="3.2" cy="5.4" r="8.8"  />
       <circle class="drop drop5" cx="14.2" cy="5.1" r="7.5"  />
       <circle class="drop drop6" cx="17.2" cy="4.8" r="9.2"  />
       <use id="wave1" class="wave" xlink:href="#wave" x="0" y="1" />
      </g>  
         <!-- g mask="url(#xxx)">
         <path   id="wave1"  class="wave" d="M 0,10 C 30,10 30,15 60,15 90,15 90,10 120,10 150,10 150,15 180,15 210,15 210,10 240,10 v 28 h -240 z" />
         </g>
       </g -->
     
     </svg>